  0
SECTION
  2
HEADER
  9
$ACADVER
  1
AC1015
  9
$ACADMAINTVER
 70
     6
  9
$DWGCODEPAGE
  3
ANSI_1252
  9
$INSBASE
 10
0.0
 20
0.0
 30
0.0
  9
$EXTMIN
 10
-150.0
 20
0.0
 30
0.0
  9
$EXTMAX
 10
0.0
 20
250.0
 30
0.0
  9
$LIMMIN
 10
0.0
 20
0.0
  9
$LIMMAX
 10
420.0
 20
297.0
  9
$ORTHOMODE
 70
     0
  9
$REGENMODE
 70
     1
  9
$FILLMODE
 70
     1
  9
$QTEXTMODE
 70
     0
  9
$MIRRTEXT
 70
     1
  9
$LTSCALE
 40
1.0
  9
$ATTMODE
 70
     1
  9
$TEXTSIZE
 40
3.5
  9
$TRACEWID
 40
1.0
  9
$TEXTSTYLE
  7
Standard
  9
$CLAYER
  8
0
  9
$CELTYPE
  6
ByLayer
  9
$CECOLOR
 62
   256
  9
$CELTSCALE
 40
1.0
  9
$DISPSILH
 70
     0
  9
$DIMSCALE
 40
1.0
  9
$DIMASZ
 40
3.302
  9
$DIMEXO
 40
1.0
  9
$DIMDLI
 40
3.75
  9
$DIMRND
 40
0.0
  9
$DIMDLE
 40
0.0
  9
$DIMEXE
 40
1.0
  9
$DIMTP
 40
0.0
  9
$DIMTM
 40
0.0
  9
$DIMTXT
 40
3.5
  9
$DIMCEN
 40
2.5
  9
$DIMTSZ
 40
0.0
  9
$DIMTOL
 70
     0
  9
$DIMLIM
 70
     0
  9
$DIMTIH
 70
     1
  9
$DIMTOH
 70
     1
  9
$DIMSE1
 70
     0
  9
$DIMSE2
 70
     0
  9
$DIMTAD
 70
     1
  9
$DIMZIN
 70
     0
  9
$DIMBLK
  1

  9
$DIMASO
 70
     1
  9
$DIMSHO
 70
     1
  9
$DIMPOST
  1

  9
$DIMAPOST
  1

  9
$DIMALT
 70
     0
  9
$DIMALTD
 70
     3
  9
$DIMALTF
 40
0.0393700787
  9
$DIMLFAC
 40
1.0
  9
$DIMTOFL
 70
     1
  9
$DIMTVP
 40
0.0
  9
$DIMTIX
 70
     0
  9
$DIMSOXD
 70
     0
  9
$DIMSAH
 70
     0
  9
$DIMBLK1
  1

  9
$DIMBLK2
  1

  9
$DIMSTYLE
  2
ISO-25
  9
$DIMCLRD
 70
     0
  9
$DIMCLRE
 70
     0
  9
$DIMCLRT
 70
     0
  9
$DIMTFAC
 40
1.0
  9
$DIMGAP
 40
1.524
  9
$DIMJUST
 70
     0
  9
$DIMSD1
 70
     0
  9
$DIMSD2
 70
     0
  9
$DIMTOLJ
 70
     0
  9
$DIMTZIN
 70
     0
  9
$DIMALTZ
 70
     0
  9
$DIMALTTZ
 70
     0
  9
$DIMUPT
 70
     0
  9
$DIMDEC
 70
     2
  9
$DIMTDEC
 70
     2
  9
$DIMALTU
 70
     2
  9
$DIMALTTD
 70
     3
  9
$DIMTXSTY
  7
Standard
  9
$DIMAUNIT
 70
     0
  9
$DIMADEC
 70
     2
  9
$DIMALTRND
 40
0.0
  9
$DIMAZIN
 70
     0
  9
$DIMDSEP
 70
    44
  9
$DIMATFIT
 70
     3
  9
$DIMFRAC
 70
     0
  9
$DIMLDRBLK
  1

  9
$DIMLUNIT
 70
     2
  9
$DIMLWD
 70
    -2
  9
$DIMLWE
 70
    -2
  9
$DIMTMOVE
 70
     0
  9
$LUNITS
 70
     2
  9
$LUPREC
 70
     2
  9
$SKETCHINC
 40
1.0
  9
$FILLETRAD
 40
10.0
  9
$AUNITS
 70
     0
  9
$AUPREC
 70
     2
  9
$MENU
  1
.
  9
$ELEVATION
 40
0.0
  9
$PELEVATION
 40
0.0
  9
$THICKNESS
 40
0.0
  9
$LIMCHECK
 70
     0
  9
$CHAMFERA
 40
0.0
  9
$CHAMFERB
 40
0.0
  9
$CHAMFERC
 40
0.0
  9
$CHAMFERD
 40
0.0
  9
$SKPOLY
 70
     0
  9
$TDCREATE
 40
2458305.541430243
  9
$TDUCREATE
 40
2458305.499763576
  9
$TDUPDATE
 40
2458305.541552917
  9
$TDUUPDATE
 40
2458305.49988625
  9
$TDINDWG
 40
0.0000000116
  9
$TDUSRTIMER
 40
0.0000000116
  9
$USRTIMER
 70
     1
  9
$ANGBASE
 50
0.0
  9
$ANGDIR
 70
     0
  9
$PDMODE
 70
     0
  9
$PDSIZE
 40
-1.0
  9
$PLINEWID
 40
0.0
  9
$SPLFRAME
 70
     0
  9
$SPLINETYPE
 70
     6
  9
$SPLINESEGS
 70
     8
  9
$HANDSEED
  5
35C
  9
$SURFTAB1
 70
     6
  9
$SURFTAB2
 70
     6
  9
$SURFTYPE
 70
     6
  9
$SURFU
 70
     6
  9
$SURFV
 70
     6
  9
$UCSBASE
  2

  9
$UCSNAME
  2

  9
$UCSORG
 10
0.0
 20
0.0
 30
0.0
  9
$UCSXDIR
 10
1.0
 20
0.0
 30
0.0
  9
$UCSYDIR
 10
0.0
 20
1.0
 30
0.0
  9
$UCSORTHOREF
  2

  9
$UCSORTHOVIEW
 70
     0
  9
$UCSORGTOP
 10
0.0
 20
0.0
 30
0.0
  9
$UCSORGBOTTOM
 10
0.0
 20
0.0
 30
0.0
  9
$UCSORGLEFT
 10
0.0
 20
0.0
 30
0.0
  9
$UCSORGRIGHT
 10
0.0
 20
0.0
 30
0.0
  9
$UCSORGFRONT
 10
0.0
 20
0.0
 30
0.0
  9
$UCSORGBACK
 10
0.0
 20
0.0
 30
0.0
  9
$PUCSBASE
  2

  9
$PUCSNAME
  2

  9
$PUCSORG
 10
0.0
 20
0.0
 30
0.0
  9
$PUCSXDIR
 10
1.0
 20
0.0
 30
0.0
  9
$PUCSYDIR
 10
0.0
 20
1.0
 30
0.0
  9
$PUCSORTHOREF
  2

  9
$PUCSORTHOVIEW
 70
     0
  9
$PUCSORGTOP
 10
0.0
 20
0.0
 30
0.0
  9
$PUCSORGBOTTOM
 10
0.0
 20
0.0
 30
0.0
  9
$PUCSORGLEFT
 10
0.0
 20
0.0
 30
0.0
  9
$PUCSORGRIGHT
 10
0.0
 20
0.0
 30
0.0
  9
$PUCSORGFRONT
 10
0.0
 20
0.0
 30
0.0
  9
$PUCSORGBACK
 10
0.0
 20
0.0
 30
0.0
  9
$USERI1
 70
     0
  9
$USERI2
 70
     0
  9
$USERI3
 70
     0
  9
$USERI4
 70
     0
  9
$USERI5
 70
     0
  9
$USERR1
 40
0.0
  9
$USERR2
 40
0.0
  9
$USERR3
 40
0.0
  9
$USERR4
 40
0.0
  9
$USERR5
 40
0.0
  9
$WORLDVIEW
 70
     1
  9
$SHADEDGE
 70
     3
  9
$SHADEDIF
 70
    70
  9
$TILEMODE
 70
     1
  9
$MAXACTVP
 70
    64
  9
$PINSBASE
 10
0.0
 20
0.0
 30
0.0
  9
$PLIMCHECK
 70
     0
  9
$PEXTMIN
 10
1.0000000000E+20
 20
1.0000000000E+20
 30
1.0000000000E+20
  9
$PEXTMAX
 10
-1.0000000000E+20
 20
-1.0000000000E+20
 30
-1.0000000000E+20
  9
$PLIMMIN
 10
0.0
 20
0.0
  9
$PLIMMAX
 10
420.0
 20
297.0
  9
$UNITMODE
 70
     0
  9
$VISRETAIN
 70
     1
  9
$PLINEGEN
 70
     0
  9
$PSLTSCALE
 70
     1
  9
$TREEDEPTH
 70
  3020
  9
$CMLSTYLE
  2
Standard
  9
$CMLJUST
 70
     0
  9
$CMLSCALE
 40
20.0
  9
$PROXYGRAPHICS
 70
     1
  9
$MEASUREMENT
 70
     1
  9
$CELWEIGHT
370
    -1
  9
$ENDCAPS
280
     0
  9
$JOINSTYLE
280
     0
  9
$LWDISPLAY
290
     1
  9
$INSUNITS
 70
     4
  9
$HYPERLINKBASE
  1

  9
$STYLESHEET
  1

  9
$XEDIT
290
     1
  9
$CEPSNTYPE
380
     0
  9
$PSTYLEMODE
290
     1
  9
$FINGERPRINTGUID
  2
{C0BD19E0-1E4E-448E-92A4-A0608CCB7011}
  9
$VERSIONGUID
  2
{FAEB1C32-E019-11D5-929B-00C0DF256EC4}
  9
$EXTNAMES
290
     1
  9
$PSVPSCALE
 40
0.0
  9
$OLESTARTUP
290
     0
  0
ENDSEC
  0
SECTION
  2
CLASSES
  0
CLASS
  1
ACDBDICTIONARYWDFLT
  2
AcDbDictionaryWithDefault
  3
ObjectDBX Classes
 90
        0
280
     0
281
     0
  0
CLASS
  1
VISUALSTYLE
  2
AcDbVisualStyle
  3
ObjectDBX Classes
 90
     4095
280
     0
281
     0
  0
CLASS
  1
MATERIAL
  2
AcDbMaterial
  3
ObjectDBX Classes
 90
     1153
280
     0
281
     0
  0
CLASS
  1
SCALE
  2
AcDbScale
  3
ObjectDBX Classes
 90
     1153
280
     0
281
     0
  0
CLASS
  1
TABLESTYLE
  2
AcDbTableStyle
  3
ObjectDBX Classes
 90
     4095
280
     0
281
     0
  0
CLASS
  1
MLEADERSTYLE
  2
AcDbMLeaderStyle
  3
ACDB_MLEADERSTYLE_CLASS
 90
     4095
280
     0
281
     0
  0
CLASS
  1
SUN
  2
AcDbSun
  3
SCENEOE
 90
     1153
280
     0
281
     0
  0
CLASS
  1
ACDBPLACEHOLDER
  2
AcDbPlaceHolder
  3
ObjectDBX Classes
 90
        0
280
     0
281
     0
  0
CLASS
  1
LAYOUT
  2
AcDbLayout
  3
ObjectDBX Classes
 90
        0
280
     0
281
     0
  0
ENDSEC
  0
SECTION
  2
TABLES
  0
TABLE
  2
VPORT
  5
8
330
0
100
AcDbSymbolTable
 70
     1
  0
VPORT
  5
29
330
8
100
AcDbSymbolTableRecord
100
AcDbViewportTableRecord
  2
*Active
 70
     0
 10
0.0
 20
0.0
 11
1.0
 21
1.0
 12
-75.0
 22
125.0
 13
0.0
 23
0.0
 14
10.0
 24
10.0
 15
10.0
 25
10.0
 16
0.0
 26
0.0
 36
1.0
 17
0.0
 27
0.0
 37
0.0
 40
255.0
 41
0.6
 42
50.0
 43
0.0
 44
0.0
 50
0.0
 51
0.0
 71
     0
 72
   100
 73
     1
 74
     3
 75
     0
 76
     0
 77
     0
 78
     0
281
     0
 65
     1
110
0.0
120
0.0
130
0.0
111
1.0
121
0.0
131
0.0
112
0.0
122
1.0
132
0.0
 79
     0
146
0.0
  0
ENDTAB
  0
TABLE
  2
LTYPE
  5
5
330
0
100
AcDbSymbolTable
 70
     6
  0
LTYPE
  5
14
330
5
100
AcDbSymbolTableRecord
100
AcDbLinetypeTableRecord
  2
ByBlock
 70
     0
  3

 72
    65
 73
     0
 40
0.0
  0
LTYPE
  5
15
330
5
100
AcDbSymbolTableRecord
100
AcDbLinetypeTableRecord
  2
ByLayer
 70
     0
  3

 72
    65
 73
     0
 40
0.0
  0
LTYPE
  5
16
330
5
100
AcDbSymbolTableRecord
100
AcDbLinetypeTableRecord
  2
Continuous
 70
     0
  3
Solid line
 72
    65
 73
     0
 40
0.0
  0
LTYPE
  5
6E
330
5
100
AcDbSymbolTableRecord
100
AcDbLinetypeTableRecord
  2
HIDDEN
 70
     0
  3
Hidden __ __ __ __ __ __ __ __ __ __ __ __ __ __
 72
    65
 73
     2
 40
1.905
 49
1.27
 74
     0
 49
-0.635
 74
     0
  0
LTYPE
  5
6F
330
5
100
AcDbSymbolTableRecord
100
AcDbLinetypeTableRecord
  2
PHANTOM
 70
     0
  3
Phantom ______  __  __  ______  __  __  ______
 72
    65
 73
     6
 40
12.7
 49
6.35
 74
     0
 49
-1.27
 74
     0
 49
1.27
 74
     0
 49
-1.27
 74
     0
 49
1.27
 74
     0
 49
-1.27
 74
     0
  0
LTYPE
  5
70
330
5
100
AcDbSymbolTableRecord
100
AcDbLinetypeTableRecord
  2
CENTER
 70
     0
  3
Center ____ _ ____ _ ____ _ ____ _ ____ _ ____
 72
    65
 73
     4
 40
10.16
 49
6.35
 74
     0
 49
-1.27
 74
     0
 49
1.27
 74
     0
 49
-1.27
 74
     0
  0
LTYPE
  5
71
330
5
100
AcDbSymbolTableRecord
100
AcDbLinetypeTableRecord
  2
CENTERX2
 70
     0
  3
Center (2x) ________  __  ________  __  _____
 72
    65
 73
     4
 40
20.32
 49
12.7
 74
     0
 49
-2.54
 74
     0
 49
2.54
 74
     0
 49
-2.54
 74
     0
  0
LTYPE
  5
72
330
5
100
AcDbSymbolTableRecord
100
AcDbLinetypeTableRecord
  2
DOT2
 70
     0
  3
Dot (.5x) ........................................
 72
    65
 73
     2
 40
0.635
 49
0.0
 74
     0
 49
-0.635
 74
     0
  0
ENDTAB
  0
TABLE
  2
LAYER
  5
2
330
0
100
AcDbSymbolTable
 70
     1
  0
LAYER
  5
10
330
2
100
AcDbSymbolTableRecord
100
AcDbLayerTableRecord
  2
0
 70
     0
 62
     7
  6
Continuous
370
    -3
390
F
  0
ENDTAB
  0
TABLE
  2
STYLE
  5
3
330
0
100
AcDbSymbolTable
 70
     2
  0
STYLE
  5
11
330
3
100
AcDbSymbolTableRecord
100
AcDbTextStyleTableRecord
  2
Standard
 70
     0
 40
0.0
 41
1.0
 50
0.0
 71
     0
 42
3.5
  3
txt
  4

  0
STYLE
  5
359
330
3
100
AcDbSymbolTableRecord
100
AcDbTextStyleTableRecord
  2
SLDTEXTSTYLE0
 70
     0
 40
0.0
 41
0.7
 50
0.0
 71
     0
 42
3.5
  3
TXT
  4

  0
ENDTAB
  0
TABLE
  2
VIEW
  5
6
330
0
100
AcDbSymbolTable
 70
     0
  0
ENDTAB
  0
TABLE
  2
UCS
  5
7
330
0
100
AcDbSymbolTable
 70
     0
  0
ENDTAB
  0
TABLE
  2
APPID
  5
9
330
0
100
AcDbSymbolTable
 70
     1
  0
APPID
  5
12
330
9
100
AcDbSymbolTableRecord
100
AcDbRegAppTableRecord
  2
ACAD
 70
     0
  0
ENDTAB
  0
TABLE
  2
DIMSTYLE
  5
A
330
0
100
AcDbSymbolTable
 70
     1
100
AcDbDimStyleTable
  0
DIMSTYLE
105
27
330
A
100
AcDbSymbolTableRecord
100
AcDbDimStyleTableRecord
  2
ISO-25
 70
     0
 41
2.5
 42
0.625
 43
3.75
 44
1.25
 73
     0
 74
     0
 77
     1
 78
     8
140
2.5
141
2.5
143
0.0393700787
147
0.625
171
     3
172
     1
178
     0
271
     2
272
     2
274
     3
278
    44
283
     0
284
     8
340
11
  0
ENDTAB
  0
TABLE
  2
BLOCK_RECORD
  5
1
330
0
100
AcDbSymbolTable
 70
     1
  0
BLOCK_RECORD
  5
1F
330
1
100
AcDbSymbolTableRecord
100
AcDbBlockTableRecord
  2
*Model_Space
340
22
  0
BLOCK_RECORD
  5
1B
330
1
100
AcDbSymbolTableRecord
100
AcDbBlockTableRecord
  2
*Paper_Space
340
1E
  0
BLOCK_RECORD
  5
23
330
1
100
AcDbSymbolTableRecord
100
AcDbBlockTableRecord
  2
*Paper_Space0
340
26
  0
ENDTAB
  0
ENDSEC
  0
SECTION
  2
BLOCKS
  0
BLOCK
  5
20
330
1F
100
AcDbEntity
  8
0
100
AcDbBlockBegin
  2
*Model_Space
 70
     0
 10
0.0
 20
0.0
 30
0.0
  3
*Model_Space
  1

  0
ENDBLK
  5
21
330
1F
100
AcDbEntity
  8
0
100
AcDbBlockEnd
  0
BLOCK
  5
1C
330
1B
100
AcDbEntity
 67
     1
  8
0
100
AcDbBlockBegin
  2
*Paper_Space
 70
     0
 10
0.0
 20
0.0
 30
0.0
  3
*Paper_Space
  1

  0
ENDBLK
  5
1D
330
1B
100
AcDbEntity
 67
     1
  8
0
100
AcDbBlockEnd
  0
BLOCK
  5
24
330
23
100
AcDbEntity
  8
0
100
AcDbBlockBegin
  2
*Paper_Space0
 70
     0
 10
0.0
 20
0.0
 30
0.0
  3
*Paper_Space0
  1

  0
ENDBLK
  5
25
330
23
100
AcDbEntity
  8
0
100
AcDbBlockEnd
  0
ENDSEC
  0
SECTION
  2
ENTITIES
  0
SPLINE
  5
1B3
330
1F
100
AcDbEntity
  8
0
  6
Continuous
 62
     7
370
    25
100
AcDbSpline
210
0.0
220
0.0
230
1.0
 70
     8
 71
     3
 72
    17
 73
    13
 74
     0
 42
0.000000001
 43
0.00000001
 40
0.1636135798537849
 40
0.1636135798537849
 40
0.1636135798537849
 40
0.1636135798537849
 40
0.1891506359753604
 40
0.2191820939021989
 40
0.2492135518290374
 40
0.2792450097558759
 40
0.3092764676827144
 40
0.3393079256095529
 40
0.3693393835363914
 40
0.3843551124998106
 40
0.3993708414632299
 40
0.4003430408278186
 40
0.4003430408278186
 40
0.4003430408278186
 40
0.4003430408278186
 10
-22.41244109295495
 20
113.6821536551226
 30
0.0
 10
-22.12662654478147
 20
116.4224359454214
 30
0.0
 10
-21.45767461652294
 20
122.6123231917073
 30
0.0
 10
-20.4877106338508
 20
132.6089907190481
 30
0.0
 10
-19.83186019834687
 20
143.282459546877
 30
0.0
 10
-19.84686619675402
 20
153.7615133054087
 30
0.0
 10
-20.86658744216028
 20
163.7334483254134
 30
0.0
 10
-23.29000258688176
 20
172.9184763155801
 30
0.0
 10
-26.96452236793465
 20
179.6621588224148
 30
0.0
 10
-31.208134735409
 20
184.1360421074642
 30
0.0
 10
-33.85765662329299
 20
186.0240371055062
 30
0.0
 10
-35.33761796370614
 20
186.8533315937434
 30
0.0
 10
-35.42801897666799
 20
186.9032248760889
 30
0.0
  0
SPLINE
  5
1BB
330
1F
100
AcDbEntity
  8
0
  6
Continuous
 62
     7
370
    25
100
AcDbSpline
210
0.0
220
0.0
230
1.0
 70
     8
 71
     3
 72
    15
 73
    11
 74
     0
 42
0.000000001
 43
0.00000001
 40
0.4014982465671283
 40
0.4014982465671283
 40
0.4014982465671283
 40
0.4014982465671283
 40
0.4143865704266491
 40
0.4294022993900684
 40
0.4594337573169069
 40
0.4744494862803261
 40
0.4894652152437454
 40
0.5044809442071647
 40
0.5194966731705839
 40
0.5239745022597498
 40
0.5239745022597498
 40
0.5239745022597498
 40
0.5239745022597498
 10
-35.75197496531852
 20
187.0788134506925
 30
0.0
 10
-36.962984844254
 20
187.7233741026215
 30
0.0
 10
-39.73378014481883
 20
188.9149025515376
 30
0.0
 10
-45.85542558758329
 20
190.4457664795831
 30
0.0
 10
-52.60762003755395
 20
190.5994128069607
 30
0.0
 10
-59.24022248585477
 20
189.2595743866557
 30
0.0
 10
-64.01485027229673
 20
187.4457527703773
 30
0.0
 10
-68.41688208908641
 20
184.7357237739657
 30
0.0
 10
-71.32634230051025
 20
181.9072648814485
 30
0.0
 10
-72.70173355269668
 20
180.0170635527037
 30
0.0
 10
-72.99999999331581
 20
179.5758192528808
 30
0.0
  0
SPLINE
  5
1BF
330
1F
100
AcDbEntity
  8
0
  6
Continuous
 62
     7
370
    25
100
AcDbSpline
210
0.0
220
0.0
230
1.0
 70
     8
 71
     3
 72
     8
 73
     4
 74
     0
 42
0.000000001
 43
0.00000001
 40
0.5531820641267277
 40
0.5531820641267277
 40
0.5531820641267277
 40
0.5531820641267277
 40
0.5569205635184691
 40
0.5569205635184691
 40
0.5569205635184691
 40
0.5569205635184691
 10
-77.00000000000678
 20
171.0053128351224
 30
0.0
 10
-77.12220110354782
 20
170.6640481950398
 30
0.0
 10
-77.24126492217196
 20
170.3285653940375
 30
0.0
 10
-77.35801164822864
 20
169.9999999999997
 30
0.0
  0
SPLINE
  5
1C2
330
1F
100
AcDbEntity
  8
0
  6
Continuous
 62
     7
370
    25
100
AcDbSpline
210
0.0
220
0.0
230
1.0
 70
     8
 71
     3
 72
    22
 73
    18
 74
     0
 42
0.000000001
 43
0.00000001
 40
0.5655512497895281
 40
0.5655512497895281
 40
0.5655512497895281
 40
0.5655512497895281
 40
0.5795595890242609
 40
0.5870674535059706
 40
0.5945753179876802
 40
0.6020831824693897
 40
0.6058371147102446
 40
0.6095910469510994
 40
0.617098911432809
 40
0.6246067759145186
 40
0.6396225048779379
 40
0.6546382338413572
 40
0.6696539628047764
 40
0.6846696917681957
 40
0.699685420731615
 40
0.7297168786584535
 40
0.7594152196678635
 40
0.7594152196678635
 40
0.7594152196678635
 40
0.7594152196678635
 10
-78.13960139849851
 20
167.8490035068698
 30
0.0
 10
-78.5531068132832
 20
166.7602746997415
 30
0.0
 10
-79.1739271761703
 20
165.2951783541824
 30
0.0
 10
-79.97007357261653
 20
163.9794201472602
 30
0.0
 10
-80.50118061583508
 20
163.3511893275589
 30
0.0
 10
-80.83271358962837
 20
163.0977729725708
 30
0.0
 10
-81.0516480609582
 20
162.9772154059165
 30
0.0
 10
-81.39927842560446
 20
162.8354572497946
 30
0.0
 10
-82.1130040346798
 20
162.663196277094
 30
0.0
 10
-83.78847574257202
 20
162.5456626431842
 30
0.0
 10
-86.60308122526175
 20
162.8196589341518
 30
0.0
 10
-90.3892097838113
 20
163.6925977100632
 30
0.0
 10
-93.89357784360897
 20
164.8081641072195
 30
0.0
 10
-97.1764110960587
 20
166.1811779592336
 30
0.0
 10
-101.2634990879016
 20
168.3297047316649
 30
0.0
 10
-105.854129736814
 20
171.5783309420401
 30
0.0
 10
-109.0577044694672
 20
174.7470777906452
 30
0.0
 10
-110.5451599018314
 20
176.455574302669
 30
0.0
  0
SPLINE
  5
1C5
330
1F
100
AcDbEntity
  8
0
  6
Continuous
 62
     7
370
    25
100
AcDbSpline
210
0.0
220
0.0
230
1.0
 70
     8
 71
     3
 72
    16
 73
    12
 74
     0
 42
0.000000001
 43
0.00000001
 40
0.7866558919933242
 40
0.7866558919933242
 40
0.7866558919933242
 40
0.7866558919933242
 40
0.7897797945121304
 40
0.8198112524389689
 40
0.8498427103658075
 40
0.879874168292646
 40
0.9099056262194845
 40
0.939937084146323
 40
0.9699685420731615
 40
0.9849842710365808
 40
1.0
 40
1.0
 40
1.0
 40
1.0
 10
-114.3734305476594
 20
181.4766885808691
 30
0.0
 10
-114.5096847150736
 20
181.6802321132133
 30
0.0
 10
-115.9435813132977
 20
183.8539048931722
 30
0.0
 10
-118.4292319603036
 20
188.2617545014955
 30
0.0
 10
-121.3432864870488
 20
195.0846105175949
 30
0.0
 10
-123.6408332409892
 20
202.2850962226446
 30
0.0
 10
-125.3427814652922
 20
209.6960695667237
 30
0.0
 10
-126.476141450217
 20
217.1518846541557
 30
0.0
 10
-126.9736422762073
 20
223.2499990161255
 30
0.0
 10
-127.1211905277948
 20
227.9963636368294
 30
0.0
 10
-127.1155874025333
 20
230.2714195291243
 30
0.0
 10
-127.09302878315
 20
231.4208862842815
 30
0.0
  0
SPLINE
  5
1C7
330
1F
100
AcDbEntity
  8
0
  6
Continuous
 62
     7
370
    25
100
AcDbSpline
210
0.0
220
0.0
230
1.0
 70
     8
 71
     3
 72
    17
 73
    13
 74
     0
 42
0.000000001
 43
0.00000001
 40
0.7411491992364588
 40
0.7411491992364588
 40
0.7411491992364588
 40
0.7411491992364588
 40
0.75
 40
0.78125
 40
0.8125
 40
0.84375
 40
0.875
 40
0.90625
 40
0.9375
 40
0.96875
 40
0.984375
 40
1.0
 40
1.0
 40
1.0
 40
1.0
 10
-114.5708735500003
 20
166.2104748662158
 30
0.0
 10
-115.167760574908
 20
166.7782037323643
 30
0.0
 10
-117.8081126356504
 20
169.4109159751862
 30
0.0
 10
-121.994528655761
 20
174.5544360603143
 30
0.0
 10
-126.5154510086813
 20
182.0235032912344
 30
0.0
 10
-130.1399752220488
 20
190.0106740644889
 30
0.0
 10
-132.9431766357155
 20
198.3378434513032
 30
0.0
 10
-134.9923424921126
 20
206.8345963633867
 30
0.0
 10
-136.3469657667968
 20
215.3381541969746
 30
0.0
 10
-136.9419900639441
 20
222.2827450102954
 30
0.0
 10
-137.1215113689469
 20
227.6959251152129
 30
0.0
 10
-137.1169145893987
 20
230.3019101827777
 30
0.0
 10
-137.0911035790512
 20
231.6171014100123
 30
0.0
  0
SPLINE
  5
1CB
330
1F
100
AcDbEntity
  8
0
  6
Continuous
 62
     7
370
    25
100
AcDbSpline
210
0.0
220
0.0
230
1.0
 70
     8
 71
     3
 72
    18
 73
    14
 74
     0
 42
0.000000001
 43
0.00000001
 40
0.6062732444071612
 40
0.6062732444071612
 40
0.6062732444071612
 40
0.6062732444071612
 40
0.609375
 40
0.6171875
 40
0.625
 40
0.6328125
 40
0.640625
 40
0.6484375
 40
0.65625
 40
0.671875
 40
0.6875
 40
0.703125
 40
0.7123426464831439
 40
0.7123426464831439
 40
0.7123426464831439
 40
0.7123426464831439
 10
-76.99999999999953
 20
153.8388667538499
 30
0.0
 10
-77.36172199423305
 20
153.6765309569161
 30
0.0
 10
-78.64732589715808
 20
153.1764837315937
 30
0.0
 10
-80.84442969268424
 20
152.6988688804916
 30
0.0
 10
-83.52519035294095
 20
152.5521430180312
 30
0.0
 10
-86.13702511763904
 20
152.711024566791
 30
0.0
 10
-88.67752821965958
 20
153.0824125397489
 30
0.0
 10
-91.12080162228398
 20
153.5974393434309
 30
0.0
 10
-94.2275057616965
 20
154.3998712677575
 30
0.0
 10
-97.96736783741467
 20
155.6367224650946
 30
0.0
 10
-102.1825507770275
 20
157.472636774152
 30
0.0
 10
-105.5921326052029
 20
159.3453912755249
 30
0.0
 10
-107.5712160391431
 20
160.6257696451765
 30
0.0
 10
-108.2898686217052
 20
161.1180182935409
 30
0.0
  0
SPLINE
  5
1D3
330
1F
100
AcDbEntity
  8
0
  6
Continuous
 62
     7
370
    25
100
AcDbSpline
210
0.0
220
0.0
230
1.0
 70
     8
 71
     3
 72
    22
 73
    18
 74
     0
 42
0.000000001
 43
0.00000001
 40
0.3940027578705242
 40
0.3940027578705242
 40
0.3940027578705242
 40
0.3940027578705242
 40
0.40625
 40
0.421875
 40
0.4375
 40
0.46875
 40
0.484375
 40
0.5
 40
0.515625
 40
0.5234375
 40
0.53125
 40
0.546875
 40
0.5625
 40
0.578125
 40
0.5859375
 40
0.59375
 40
0.6002107501821212
 40
0.6002107501821212
 40
0.6002107501821212
 40
0.6002107501821212
 10
-39.26333319183848
 20
177.5416639516127
 30
0.0
 10
-39.88364156582725
 20
177.9563040908616
 30
0.0
 10
-41.3952496866614
 20
178.8016610856427
 30
0.0
 10
-44.27452379250267
 20
179.806638043762
 30
0.0
 10
-48.98420930462146
 20
180.6035906340799
 30
0.0
 10
-54.06776202393657
 20
180.2947122279953
 30
0.0
 10
-58.60640051939347
 20
178.8656129759355
 30
0.0
 10
-61.53258672119463
 20
177.2976521232546
 30
0.0
 10
-63.47076414523245
 20
175.6159988341232
 30
0.0
 10
-64.66804407211315
 20
174.1056628003933
 30
0.0
 10
-65.7578815426257
 20
172.2906056606864
 30
0.0
 10
-67.01456985421372
 20
169.3339857357472
 30
0.0
 10
-68.42903633939298
 20
165.1849791072221
 30
0.0
 10
-69.84125383875572
 20
161.5350830799544
 30
0.0
 10
-71.47062731604014
 20
158.6290300857494
 30
0.0
 10
-73.00867408927026
 20
156.6345662706084
 30
0.0
 10
-74.31468564515544
 20
155.473176733655
 30
0.0
 10
-74.97714188750385
 20
155.0000000258538
 30
0.0
  0
SPLINE
  5
1DA
330
1F
100
AcDbEntity
  8
0
  6
Continuous
 62
     7
370
    25
100
AcDbSpline
210
0.0
220
0.0
230
1.0
 70
     8
 71
     3
 72
    19
 73
    15
 74
     0
 42
0.000000001
 43
0.00000001
 40
0.0569359365081164
 40
0.0569359365081164
 40
0.0569359365081164
 40
0.0569359365081164
 40
0.0625
 40
0.078125
 40
0.09375
 40
0.125
 40
0.15625
 40
0.1875
 40
0.21875
 40
0.25
 40
0.28125
 40
0.3125
 40
0.34375
 40
0.3678669728946459
 40
0.3678669728946459
 40
0.3678669728946459
 40
0.3678669728946459
 10
-32.5773402735016
 20
85.75432265705382
 30
0.0
 10
-32.69438562754632
 20
86.14932549762095
 30
0.0
 10
-33.09021284462942
 20
87.66989790968948
 30
0.0
 10
-33.51821086190522
 20
90.43142147044092
 30
0.0
 10
-33.7987188335249
 20
95.49764429201052
 30
0.0
 10
-33.53337586264274
 20
102.6049604006256
 30
0.0
 10
-32.64296749985374
 20
112.2217637230498
 30
0.0
 10
-31.51122595975725
 20
122.5837606859907
 30
0.0
 10
-30.46244036238036
 20
133.2908217632354
 30
0.0
 10
-29.81364045480251
 20
143.9061392720659
 30
0.0
 10
-29.87154673301776
 20
153.962448047509
 30
0.0
 10
-30.90813759167772
 20
162.9529339315325
 30
0.0
 10
-32.9489703173975
 20
169.7703930670858
 30
0.0
 10
-34.84289195120615
 20
173.0307251409991
 30
0.0
 10
-35.7818145602251
 20
174.2512553173585
 30
0.0
  0
SPLINE
  5
1E1
330
1F
100
AcDbEntity
  8
0
  6
Continuous
 62
     7
370
    25
100
AcDbSpline
210
0.0
220
0.0
230
1.0
 70
     8
 71
     3
 72
    12
 73
     8
 74
     0
 42
0.000000001
 43
0.00000001
 40
0.0
 40
0.0
 40
0.0
 40
0.0
 40
0.0078125
 40
0.015625
 40
0.0234375
 40
0.03125
 40
0.0328969229138141
 40
0.0328969229138141
 40
0.0328969229138141
 40
0.0328969229138141
 10
-22.74052544791758
 20
77.44582680924913
 30
0.0
 10
-23.40307029683107
 20
77.45575542265576
 30
0.0
 10
-24.7205038930922
 20
77.59176010541438
 30
0.0
 10
-26.6737152816757
 20
78.21244822067536
 30
0.0
 10
-28.43195821203953
 20
79.24137382961804
 30
0.0
 10
-29.49972953359592
 20
80.22263566008856
 30
0.0
 10
-30.00260002278977
 20
80.79794134660328
 30
0.0
 10
-30.08776253399352
 20
80.8991637081941
 30
0.0
  0
SPLINE
  5
1E4
330
1F
100
AcDbEntity
  8
0
  6
Continuous
 62
     7
370
    25
100
AcDbSpline
210
0.0
220
0.0
230
1.0
 70
     8
 71
     3
 72
    10
 73
     6
 74
     0
 42
0.000000001
 43
0.00000001
 40
0.0744175002872363
 40
0.0744175002872363
 40
0.0744175002872363
 40
0.0744175002872363
 40
0.0840405332314256
 40
0.0990562621948449
 40
0.1043530791961068
 40
0.1043530791961068
 40
0.1043530791961068
 40
0.1043530791961068
 10
-23.44425998164835
 20
90.89305082765327
 30
0.0
 10
-23.51002840333805
 20
91.40559500847517
 30
0.0
 10
-23.64906872722649
 20
92.8379406833279
 30
0.0
 10
-23.71277151899436
 20
94.90340727459929
 30
0.0
 10
-23.70026811269133
 20
96.45568227765314
 30
0.0
 10
-23.69340195398209
 20
96.87012832935638
 30
0.0
  0
CIRCLE
  5
1E5
330
1F
100
AcDbEntity
  8
0
  6
Continuous
 62
     7
370
    25
100
AcDbCircle
 10
-138.8055172071
 20
10.0
 30
0.0
 40
1.5
  0
CIRCLE
  5
1E6
330
1F
100
AcDbEntity
  8
0
  6
Continuous
 62
     7
370
    25
100
AcDbCircle
 10
-10.0
 20
10.0
 30
0.0
 40
1.5
  0
CIRCLE
  5
1E7
330
1F
100
AcDbEntity
  8
0
  6
Continuous
 62
     7
370
    25
100
AcDbCircle
 10
-10.0
 20
240.0
 30
0.0
 40
1.499999999999963
  0
CIRCLE
  5
1E8
330
1F
100
AcDbEntity
  8
0
  6
Continuous
 62
     7
370
    25
100
AcDbCircle
 10
-140.0
 20
240.0
 30
0.0
 40
1.5
  0
SPLINE
  5
1E9
330
1F
100
AcDbEntity
  8
0
  6
Continuous
 62
     7
370
    25
100
AcDbSpline
210
0.0
220
0.0
230
1.0
 70
     8
 71
     3
 72
    11
 73
     7
 74
     0
 42
0.000000001
 43
0.00000001
 40
0.1043530791961069
 40
0.1043530791961069
 40
0.1043530791961069
 40
0.1043530791961069
 40
0.1140719911582641
 40
0.1290877201216834
 40
0.1591191780485219
 40
0.1636135798537801
 40
0.1636135798537801
 40
0.1636135798537801
 40
0.1636135798537801
 10
-23.69340195398209
 20
96.87012832935638
 30
0.0
 10
-23.68080352137673
 20
97.63057836729571
 30
0.0
 10
-23.61784588961015
 20
99.64874406779417
 30
0.0
 10
-23.32063747052164
 20
104.5320056081481
 30
0.0
 10
-22.84401998853777
 20
109.5198683199863
 30
0.0
 10
-22.46274310956833
 20
113.1998768565033
 30
0.0
 10
-22.41244109295512
 20
113.6821536551211
 30
0.0
  0
SPLINE
  5
1EA
330
1F
100
AcDbEntity
  8
0
  6
Continuous
 62
     7
370
    25
100
AcDbSpline
210
0.0
220
0.0
230
1.0
 70
     8
 71
     3
 72
     9
 73
     5
 74
     0
 42
0.000000001
 43
0.00000001
 40
0.5569205635184691
 40
0.5569205635184691
 40
0.5569205635184691
 40
0.5569205635184691
 40
0.5645438600608417
 40
0.5655512497697606
 40
0.5655512497697606
 40
0.5655512497697606
 40
0.5655512497697606
 10
-77.35801164822867
 20
169.9999999999998
 30
0.0
 10
-77.59607372068672
 20
169.3300115447804
 30
0.0
 10
-77.85468699933969
 20
168.6040505898537
 30
0.0
 10
-78.1098647454232
 20
167.9272978887144
 30
0.0
 10
-78.13960139674799
 20
167.8490035114789
 30
0.0
  0
SPLINE
  5
1EB
330
1F
100
AcDbEntity
  8
0
  6
Continuous
 62
     7
370
    25
100
AcDbSpline
210
0.0
220
0.0
230
1.0
 70
     8
 71
     3
 72
     9
 73
     5
 74
     0
 42
0.000000001
 43
0.00000001
 40
0.7594152196678635
 40
0.7594152196678635
 40
0.7594152196678635
 40
0.7594152196678635
 40
0.759748336585292
 40
0.7866558920290633
 40
0.7866558920290633
 40
0.7866558920290633
 40
0.7866558920290633
 10
-110.5451599018314
 20
176.455574302669
 30
0.0
 10
-110.5618442199313
 20
176.4747379687924
 30
0.0
 10
-111.9251217682646
 20
178.0432168073396
 30
0.0
 10
-113.1998130846454
 20
179.723478028442
 30
0.0
 10
-114.3734305523358
 20
181.4766885878551
 30
0.0
  0
SPLINE
  5
1EC
330
1F
100
AcDbEntity
  8
0
  6
Continuous
 62
     7
370
    25
100
AcDbSpline
210
0.0
220
0.0
230
1.0
 70
     8
 71
     3
 72
     8
 73
     4
 74
     0
 42
0.000000001
 43
0.00000001
 40
0.4003430408278186
 40
0.4003430408278186
 40
0.4003430408278186
 40
0.4003430408278186
 40
0.4014982465671135
 40
0.4014982465671135
 40
0.4014982465671135
 40
0.4014982465671135
 10
-35.42801897666799
 20
186.9032248760889
 30
0.0
 10
-35.53543703598322
 20
186.9625100476465
 30
0.0
 10
-35.64342977528521
 20
187.0210402155863
 30
0.0
 10
-35.75197496531436
 20
187.0788134506902
 30
0.0
  0
SPLINE
  5
1ED
330
1F
100
AcDbEntity
  8
0
  6
Continuous
 62
     7
370
    25
100
AcDbSpline
210
0.0
220
0.0
230
1.0
 70
     8
 71
     3
 72
    10
 73
     6
 74
     0
 42
0.000000001
 43
0.00000001
 40
0.3678669728758115
 40
0.3678669728758115
 40
0.3678669728758115
 40
0.3678669728758115
 40
0.375
 40
0.390625
 40
0.3940027578705242
 40
0.3940027578705242
 40
0.3940027578705242
 40
0.3940027578705242
 10
-35.78181455802531
 20
174.2512553144989
 30
0.0
 10
-36.05951775343186
 20
174.6122489970028
 30
0.0
 10
-36.97734044021728
 20
175.7082906576168
 30
0.0
 10
-38.14857323214034
 20
176.7654738475425
 30
0.0
 10
-39.0922537381752
 20
177.427307267963
 30
0.0
 10
-39.26333319183848
 20
177.5416639516127
 30
0.0
  0
SPLINE
  5
1EE
330
1F
100
AcDbEntity
  8
0
  6
Continuous
 62
     7
370
    25
100
AcDbSpline
210
0.0
220
0.0
230
1.0
 70
     8
 71
     3
 72
    10
 73
     6
 74
     0
 42
0.000000001
 43
0.00000001
 40
0.6002107501220876
 40
0.6002107501220876
 40
0.6002107501220876
 40
0.6002107501220876
 40
0.6015625
 40
0.60546875
 40
0.6062732444071612
 40
0.6062732444071612
 40
0.6062732444071612
 40
0.6062732444071612
 10
-74.97714186903711
 20
155.0000000390441
 30
0.0
 10
-75.11574421670315
 20
154.9009996845511
 30
0.0
 10
-75.66701535174023
 20
154.5248542072247
 30
0.0
 10
-76.35825421115575
 20
154.1354835833258
 30
0.0
 10
-76.90618109241701
 20
153.8809713738969
 30
0.0
 10
-76.99999999999953
 20
153.8388667538499
 30
0.0
  0
SPLINE
  5
1EF
330
1F
100
AcDbEntity
  8
0
  6
Continuous
 62
     7
370
    25
100
AcDbSpline
210
0.0
220
0.0
230
1.0
 70
     8
 71
     3
 72
     9
 73
     5
 74
     0
 42
0.000000001
 43
0.00000001
 40
0.0328969229138138
 40
0.0328969229138138
 40
0.0328969229138138
 40
0.0328969229138138
 40
0.046875
 40
0.0569359365081164
 40
0.0569359365081164
 40
0.0569359365081164
 40
0.0569359365081164
 10
-30.08776253399347
 20
80.89916370819402
 30
0.0
 10
-30.81056998082304
 20
81.75827736876325
 30
0.0
 10
-31.75764049182967
 20
83.3669907651208
 30
0.0
 10
-32.36569892948537
 20
85.04007874066633
 30
0.0
 10
-32.5773402735016
 20
85.7543226570538
 30
0.0
  0
SPLINE
  5
1F0
330
1F
100
AcDbEntity
  8
0
  6
Continuous
 62
     7
370
    25
100
AcDbSpline
210
0.0
220
0.0
230
1.0
 70
     8
 71
     3
 72
     9
 73
     5
 74
     0
 42
0.000000001
 43
0.00000001
 40
0.7123426465092049
 40
0.7123426465092049
 40
0.7123426465092049
 40
0.7123426465092049
 40
0.71875
 40
0.7411491992364447
 40
0.7411491992364447
 40
0.7411491992364447
 40
0.7411491992364447
 10
-108.2898686278007
 20
161.1180182977161
 30
0.0
 10
-108.7894170907843
 20
161.4601892739872
 30
0.0
 10
-111.0012775878817
 20
163.0358525889855
 30
0.0
 10
-113.0602993375907
 20
164.7736927800628
 30
0.0
 10
-114.5708735499975
 20
166.2104748662131
 30
0.0
  0
SPLINE
  5
1F1
330
1F
100
AcDbEntity
  8
0
  6
Continuous
 62
     7
370
    25
100
AcDbSpline
210
0.0
220
0.0
230
1.0
 70
     8
 71
     3
 72
    11
 73
     7
 74
     0
 42
0.000000001
 43
0.00000001
 40
0.5239745022597498
 40
0.5239745022597498
 40
0.5239745022597498
 40
0.5239745022597498
 40
0.5270045376522935
 40
0.5345124021340031
 40
0.5495281310974224
 40
0.5531820641267364
 40
0.5531820641267364
 40
0.5531820641267364
 40
0.5531820641267364
 10
-72.99999999331581
 20
179.5758192528808
 30
0.0
 10
-73.20182946324145
 20
179.2772402275098
 30
0.0
 10
-73.87561279215055
 20
178.2276116279153
 30
0.0
 10
-75.24011393751356
 20
175.663841364921
 30
0.0
 10
-76.2549911661216
 20
173.0713174090328
 30
0.0
 10
-76.88056313466174
 20
171.3388579315534
 30
0.0
 10
-77.00000000000765
 20
171.00531283512
 30
0.0
  0
LINE
  5
1FC
330
1F
100
AcDbEntity
  8
0
  6
Continuous
 62
     7
370
    25
100
AcDbLine
 10
0.0
 20
97.2552247811
 30
0.0
 11
-3.4077579143
 21
91.3528149337
 31
0.0
  0
LINE
  5
1FD
330
1F
100
AcDbEntity
  8
0
  6
Continuous
 62
     7
370
    25
100
AcDbLine
 10
-3.4077579143
 20
91.3528149337
 30
0.0
 11
-5.1398087219
 21
92.3528149337
 31
0.0
  0
LINE
  5
1FE
330
1F
100
AcDbEntity
  8
0
  6
Continuous
 62
     7
370
    25
100
AcDbLine
 10
-5.1398087219
 20
92.3528149337
 30
0.0
 11
-6.6757071067
 21
81.6925608958
 31
0.0
  0
LINE
  5
1FF
330
1F
100
AcDbEntity
  8
0
  6
Continuous
 62
     7
370
    25
100
AcDbLine
 10
0.0
 20
86.9455584654
 30
0.0
 11
-6.6757071067
 21
81.6925608958
 31
0.0
  0
LINE
  5
200
330
1F
100
AcDbEntity
  8
0
  6
Continuous
 62
     7
370
    25
100
AcDbLine
 10
0.0
 20
55.8443813118
 30
0.0
 11
-1.5518232552
 21
53.9949903723
 31
0.0
  0
LINE
  5
201
330
1F
100
AcDbEntity
  8
0
  6
Continuous
 62
     7
370
    25
100
AcDbLine
 10
-1.5518232552
 20
53.9949903723
 30
0.0
 11
-3.0839121414
 21
55.2805655917
 31
0.0
  0
LINE
  5
202
330
1F
100
AcDbEntity
  8
0
  6
Continuous
 62
     7
370
    25
100
AcDbLine
 10
-3.0839121414
 20
55.2805655917
 30
0.0
 11
-6.4476104658
 21
45.0489707217
 31
0.0
  0
LINE
  5
203
330
1F
100
AcDbEntity
  8
0
  6
Continuous
 62
     7
370
    25
100
AcDbLine
 10
0.0
 20
48.5059449089
 30
0.0
 11
-6.4476104658
 21
45.0489707217
 31
0.0
  0
LINE
  5
204
330
1F
100
AcDbEntity
  8
0
  6
Continuous
 62
     7
370
    25
100
AcDbLine
 10
0.0
 20
28.8947011304
 30
0.0
 11
-9.9089075735
 21
20.5801404401
 31
0.0
  0
LINE
  5
205
330
1F
100
AcDbEntity
  8
0
  6
Continuous
 62
     7
370
    25
100
AcDbLine
 10
-9.9089075735
 20
20.5801404401
 30
0.0
 11
-11.1944827929
 21
22.1122293264
 31
0.0
  0
LINE
  5
206
330
1F
100
AcDbEntity
  8
0
  6
Continuous
 62
     7
370
    25
100
AcDbLine
 10
-11.1944827929
 20
22.1122293264
 30
0.0
 11
-16.2837767853
 21
12.620175457
 31
0.0
  0
LINE
  5
207
330
1F
100
AcDbEntity
  8
0
  6
Continuous
 62
     7
370
    25
100
AcDbLine
 10
-6.0521819154
 20
15.9838737814
 30
0.0
 11
-16.2837767853
 21
12.620175457
 31
0.0
  0
LINE
  5
208
330
1F
100
AcDbEntity
  8
0
  6
Continuous
 62
     7
370
    25
100
AcDbLine
 10
-7.3377571347
 20
17.5159626677
 30
0.0
 11
-6.0521819154
 21
15.9838737814
 31
0.0
  0
LINE
  5
209
330
1F
100
AcDbEntity
  8
0
  6
Continuous
 62
     7
370
    25
100
AcDbLine
 10
0.0
 20
23.6730719731
 30
0.0
 11
-7.3377571347
 21
17.5159626677
 31
0.0
  0
LINE
  5
20A
330
1F
100
AcDbEntity
  8
0
  6
Continuous
 62
     7
370
    25
100
AcDbLine
 10
-35.5228131777
 20
4.175598127
 30
0.0
 11
-43.310730798
 21
0.0
 31
0.0
  0
LINE
  5
20B
330
1F
100
AcDbEntity
  8
0
  6
Continuous
 62
     7
370
    25
100
AcDbLine
 10
-37.0549020639
 20
5.4611733464
 30
0.0
 11
-35.5228131777
 21
4.175598127
 31
0.0
  0
LINE
  5
20C
330
1F
100
AcDbEntity
  8
0
  6
Continuous
 62
     7
370
    25
100
AcDbLine
 10
-27.4130879186
 20
16.9518399932
 30
0.0
 11
-37.0549020639
 21
5.4611733464
 31
0.0
  0
LINE
  5
20D
330
1F
100
AcDbEntity
  8
0
  6
Continuous
 62
     7
370
    25
100
AcDbLine
 10
-30.4772656911
 20
19.5229904319
 30
0.0
 11
-27.4130879186
 21
16.9518399932
 31
0.0
  0
LINE
  5
20E
330
1F
100
AcDbEntity
  8
0
  6
Continuous
 62
     7
370
    25
100
AcDbLine
 10
-30.4772656911
 20
19.5229904319
 30
0.0
 11
-40.1190798364
 21
8.0323237852
 31
0.0
  0
LINE
  5
20F
330
1F
100
AcDbEntity
  8
0
  6
Continuous
 62
     7
370
    25
100
AcDbLine
 10
-40.1190798364
 20
8.0323237852
 30
0.0
 11
-41.6511687226
 21
9.3178990045
 31
0.0
  0
LINE
  5
210
330
1F
100
AcDbEntity
  8
0
  6
Continuous
 62
     7
370
    25
100
AcDbLine
 10
-41.6511687226
 20
9.3178990045
 30
0.0
 11
-44.7144840383
 21
0.0
 31
0.0
  0
LINE
  5
211
330
1F
100
AcDbEntity
  8
0
  6
Continuous
 62
     7
370
    25
100
AcDbLine
 10
-108.3488312774
 20
9.3178990045
 30
0.0
 11
-105.2855159617
 21
0.0
 31
0.0
  0
LINE
  5
212
330
1F
100
AcDbEntity
  8
0
  6
Continuous
 62
     7
370
    25
100
AcDbLine
 10
-109.8809201636
 20
8.0323237852
 30
0.0
 11
-108.3488312774
 21
9.3178990045
 31
0.0
  0
LINE
  5
213
330
1F
100
AcDbEntity
  8
0
  6
Continuous
 62
     7
370
    25
100
AcDbLine
 10
-119.5227343089
 20
19.5229904319
 30
0.0
 11
-109.8809201636
 21
8.0323237852
 31
0.0
  0
LINE
  5
214
330
1F
100
AcDbEntity
  8
0
  6
Continuous
 62
     7
370
    25
100
AcDbLine
 10
-122.5869120814
 20
16.9518399932
 30
0.0
 11
-119.5227343089
 21
19.5229904319
 31
0.0
  0
LINE
  5
215
330
1F
100
AcDbEntity
  8
0
  6
Continuous
 62
     7
370
    25
100
AcDbLine
 10
-122.5869120814
 20
16.9518399932
 30
0.0
 11
-112.9450979361
 21
5.4611733464
 31
0.0
  0
LINE
  5
216
330
1F
100
AcDbEntity
  8
0
  6
Continuous
 62
     7
370
    25
100
AcDbLine
 10
-112.9450979361
 20
5.4611733464
 30
0.0
 11
-114.4771868223
 21
4.175598127
 31
0.0
  0
LINE
  5
217
330
1F
100
AcDbEntity
  8
0
  6
Continuous
 62
     7
370
    25
100
AcDbLine
 10
-114.4771868223
 20
4.175598127
 30
0.0
 11
-106.689269202
 21
0.0
 31
0.0
  0
LINE
  5
218
330
1F
100
AcDbEntity
  8
0
  6
Continuous
 62
     7
370
    25
100
AcDbLine
 10
-150.0
 20
0.0
 30
0.0
 11
0.0
 21
0.0
 31
0.0
  0
LINE
  5
219
330
1F
100
AcDbEntity
  8
0
  6
Continuous
 62
     7
370
    25
100
AcDbLine
 10
-150.0
 20
23.6730719731
 30
0.0
 11
-142.6622428653
 21
17.5159626677
 31
0.0
  0
LINE
  5
21A
330
1F
100
AcDbEntity
  8
0
  6
Continuous
 62
     7
370
    25
100
AcDbLine
 10
-142.6622428653
 20
17.5159626677
 30
0.0
 11
-143.9478180846
 21
15.9838737814
 31
0.0
  0
LINE
  5
21B
330
1F
100
AcDbEntity
  8
0
  6
Continuous
 62
     7
370
    25
100
AcDbLine
 10
-143.9478180846
 20
15.9838737814
 30
0.0
 11
-133.7162232147
 21
12.620175457
 31
0.0
  0
LINE
  5
21C
330
1F
100
AcDbEntity
  8
0
  6
Continuous
 62
     7
370
    25
100
AcDbLine
 10
-138.8055172071
 20
22.1122293264
 30
0.0
 11
-133.7162232147
 21
12.620175457
 31
0.0
  0
LINE
  5
21D
330
1F
100
AcDbEntity
  8
0
  6
Continuous
 62
     7
370
    25
100
AcDbLine
 10
-140.0910924265
 20
20.5801404402
 30
0.0
 11
-138.8055172071
 21
22.1122293264
 31
0.0
  0
LINE
  5
21E
330
1F
100
AcDbEntity
  8
0
  6
Continuous
 62
     7
370
    25
100
AcDbLine
 10
-150.0
 20
28.8947011304
 30
0.0
 11
-140.0910924265
 21
20.5801404402
 31
0.0
  0
LINE
  5
21F
330
1F
100
AcDbEntity
  8
0
  6
Continuous
 62
     7
370
    25
100
AcDbLine
 10
-150.0
 20
48.5059449089
 30
0.0
 11
-143.5523895342
 21
45.0489707217
 31
0.0
  0
LINE
  5
220
330
1F
100
AcDbEntity
  8
0
  6
Continuous
 62
     7
370
    25
100
AcDbLine
 10
-146.9160878586
 20
55.2805655917
 30
0.0
 11
-143.5523895342
 21
45.0489707217
 31
0.0
  0
LINE
  5
221
330
1F
100
AcDbEntity
  8
0
  6
Continuous
 62
     7
370
    25
100
AcDbLine
 10
-148.4481767448
 20
53.9949903723
 30
0.0
 11
-146.9160878586
 21
55.2805655917
 31
0.0
  0
LINE
  5
222
330
1F
100
AcDbEntity
  8
0
  6
Continuous
 62
     7
370
    25
100
AcDbLine
 10
-150.0
 20
55.8443813118
 30
0.0
 11
-148.4481767448
 21
53.9949903723
 31
0.0
  0
LINE
  5
223
330
1F
100
AcDbEntity
  8
0
  6
Continuous
 62
     7
370
    25
100
AcDbLine
 10
-150.0
 20
86.9455584654
 30
0.0
 11
-143.3242928933
 21
81.6925608958
 31
0.0
  0
LINE
  5
224
330
1F
100
AcDbEntity
  8
0
  6
Continuous
 62
     7
370
    25
100
AcDbLine
 10
-144.8601912781
 20
92.3528149337
 30
0.0
 11
-143.3242928933
 21
81.6925608958
 31
0.0
  0
LINE
  5
225
330
1F
100
AcDbEntity
  8
0
  6
Continuous
 62
     7
370
    25
100
AcDbLine
 10
-146.5922420857
 20
91.3528149337
 30
0.0
 11
-144.8601912781
 21
92.3528149337
 31
0.0
  0
LINE
  5
226
330
1F
100
AcDbEntity
  8
0
  6
Continuous
 62
     7
370
    25
100
AcDbLine
 10
-150.0
 20
97.2552247811
 30
0.0
 11
-146.5922420857
 21
91.3528149337
 31
0.0
  0
LINE
  5
227
330
1F
100
AcDbEntity
  8
0
  6
Continuous
 62
     7
370
    25
100
AcDbLine
 10
-150.0
 20
163.5646118722
 30
0.0
 11
-147.5573641703
 21
156.8535250863
 31
0.0
  0
LINE
  5
228
330
1F
100
AcDbEntity
  8
0
  6
Continuous
 62
     7
370
    25
100
AcDbLine
 10
-147.5573641703
 20
156.8535250863
 30
0.0
 11
-149.4367494119
 21
156.1694847996
 31
0.0
  0
LINE
  5
229
330
1F
100
AcDbEntity
  8
0
  6
Continuous
 62
     7
370
    25
100
AcDbLine
 10
-149.4367494119
 20
156.1694847996
 30
0.0
 11
-142.2577774955
 21
148.1406391651
 31
0.0
  0
LINE
  5
22A
330
1F
100
AcDbEntity
  8
0
  6
Continuous
 62
     7
370
    25
100
AcDbLine
 10
-141.9192084456
 20
158.9056459462
 30
0.0
 11
-142.2577774955
 21
148.1406391651
 31
0.0
  0
LINE
  5
22B
330
1F
100
AcDbEntity
  8
0
  6
Continuous
 62
     7
370
    25
100
AcDbLine
 10
-143.7985936872
 20
158.2216056596
 30
0.0
 11
-141.9192084456
 21
158.9056459462
 31
0.0
  0
LINE
  5
22C
330
1F
100
AcDbEntity
  8
0
  6
Continuous
 62
     7
370
    25
100
AcDbLine
 10
-148.9288958371
 20
172.3169949714
 30
0.0
 11
-143.7985936872
 21
158.2216056596
 31
0.0
  0
LINE
  5
22D
330
1F
100
AcDbEntity
  8
0
  6
Continuous
 62
     7
370
    25
100
AcDbLine
 10
-150.0
 20
171.9271449383
 30
0.0
 11
-148.9288958371
 21
172.3169949714
 31
0.0
  0
LINE
  5
22E
330
1F
100
AcDbEntity
  8
0
  6
Continuous
 62
     7
370
    25
100
AcDbLine
 10
-150.0
 20
250.0
 30
0.0
 11
-150.0
 21
0.0
 31
0.0
  0
LINE
  5
22F
330
1F
100
AcDbEntity
  8
0
  6
Continuous
 62
     7
370
    25
100
AcDbLine
 10
0.0
 20
250.0
 30
0.0
 11
-150.0
 21
250.0
 31
0.0
  0
LINE
  5
230
330
1F
100
AcDbEntity
  8
0
  6
Continuous
 62
     7
370
    25
100
AcDbLine
 10
0.0
 20
0.0
 30
0.0
 11
0.0
 21
250.0
 31
0.0
  0
LINE
  5
231
330
1F
100
AcDbEntity
  8
0
  6
Continuous
 62
     7
370
    25
100
AcDbLine
 10
-1.0711041629
 20
172.3169949714
 30
0.0
 11
0.0
 21
171.9271449383
 31
0.0
  0
LINE
  5
232
330
1F
100
AcDbEntity
  8
0
  6
Continuous
 62
     7
370
    25
100
AcDbLine
 10
-1.0711041629
 20
172.3169949714
 30
0.0
 11
-6.2014063128
 21
158.2216056596
 31
0.0
  0
LINE
  5
233
330
1F
100
AcDbEntity
  8
0
  6
Continuous
 62
     7
370
    25
100
AcDbLine
 10
-6.2014063128
 20
158.2216056596
 30
0.0
 11
-8.0807915544
 21
158.9056459462
 31
0.0
  0
LINE
  5
234
330
1F
100
AcDbEntity
  8
0
  6
Continuous
 62
     7
370
    25
100
AcDbLine
 10
-8.0807915544
 20
158.9056459462
 30
0.0
 11
-7.7422225045
 21
148.1406391651
 31
0.0
  0
LINE
  5
235
330
1F
100
AcDbEntity
  8
0
  6
Continuous
 62
     7
370
    25
100
AcDbLine
 10
-0.5632505881
 20
156.1694847996
 30
0.0
 11
-7.7422225045
 21
148.1406391651
 31
0.0
  0
LINE
  5
236
330
1F
100
AcDbEntity
  8
0
  6
Continuous
 62
     7
370
    25
100
AcDbLine
 10
-2.4426358297
 20
156.8535250863
 30
0.0
 11
-0.5632505881
 21
156.1694847996
 31
0.0
  0
LINE
  5
237
330
1F
100
AcDbEntity
  8
0
  6
Continuous
 62
     7
370
    25
100
AcDbLine
 10
0.0
 20
163.5646118722
 30
0.0
 11
-2.4426358297
 21
156.8535250863
 31
0.0
  0
LINE
  5
238
330
1F
100
AcDbEntity
  8
0
  6
Continuous
 62
     7
370
    25
100
AcDbLine
 10
-28.0618518417
 20
241.0684214763
 30
0.0
 11
-30.6665745067
 21
226.2963051811
 31
0.0
  0
LINE
  5
239
330
1F
100
AcDbEntity
  8
0
  6
Continuous
 62
     7
370
    25
100
AcDbLine
 10
-30.6665745067
 20
226.2963051811
 30
0.0
 11
-32.6361900128
 21
226.6436015365
 31
0.0
  0
LINE
  5
23A
330
1F
100
AcDbEntity
  8
0
  6
Continuous
 62
     7
370
    25
100
AcDbLine
 10
-32.6361900128
 20
226.6436015365
 30
0.0
 11
-30.4334407774
 21
216.1009312957
 31
0.0
  0
LINE
  5
23B
330
1F
100
AcDbEntity
  8
0
  6
Continuous
 62
     7
370
    25
100
AcDbLine
 10
-24.7577279887
 20
225.2544161151
 30
0.0
 11
-30.4334407774
 21
216.1009312957
 31
0.0
  0
LINE
  5
23C
330
1F
100
AcDbEntity
  8
0
  6
Continuous
 62
     7
370
    25
100
AcDbLine
 10
-26.7273434947
 20
225.6017124705
 30
0.0
 11
-24.7577279887
 21
225.2544161151
 31
0.0
  0
LINE
  5
23D
330
1F
100
AcDbEntity
  8
0
  6
Continuous
 62
     7
370
    25
100
AcDbLine
 10
-24.1226208297
 20
240.3738287656
 30
0.0
 11
-26.7273434947
 21
225.6017124705
 31
0.0
  0
LINE
  5
23E
330
1F
100
AcDbEntity
  8
0
  6
Continuous
 62
     7
370
    25
100
AcDbLine
 10
-28.0618518417
 20
241.0684214763
 30
0.0
 11
-24.1226208297
 21
240.3738287656
 31
0.0
  0
LINE
  5
23F
330
1F
100
AcDbEntity
  8
0
  6
Continuous
 62
     7
370
    25
100
AcDbLine
 10
-104.4044906913
 20
107.0774857537
 30
0.0
 11
-98.7287779026
 21
97.9240009342
 31
0.0
  0
LINE
  5
240
330
1F
100
AcDbEntity
  8
0
  6
Continuous
 62
     7
370
    25
100
AcDbLine
 10
-96.5260286672
 20
108.466671175
 30
0.0
 11
-98.7287779026
 21
97.9240009342
 31
0.0
  0
LINE
  5
241
330
1F
100
AcDbEntity
  8
0
  6
Continuous
 62
     7
370
    25
100
AcDbLine
 10
-98.4956441732
 20
108.1193748197
 30
0.0
 11
-96.5260286672
 21
108.466671175
 31
0.0
  0
LINE
  5
242
330
1F
100
AcDbEntity
  8
0
  6
Continuous
 62
     7
370
    25
100
AcDbLine
 10
-101.1003668382
 20
122.8914911148
 30
0.0
 11
-98.4956441732
 21
108.1193748197
 31
0.0
  0
LINE
  5
243
330
1F
100
AcDbEntity
  8
0
  6
Continuous
 62
     7
370
    25
100
AcDbLine
 10
-105.0395978503
 20
122.1968984042
 30
0.0
 11
-101.1003668382
 21
122.8914911148
 31
0.0
  0
LINE
  5
244
330
1F
100
AcDbEntity
  8
0
  6
Continuous
 62
     7
370
    25
100
AcDbLine
 10
-105.0395978503
 20
122.1968984042
 30
0.0
 11
-102.4348751853
 21
107.424782109
 31
0.0
  0
LINE
  5
245
330
1F
100
AcDbEntity
  8
0
  6
Continuous
 62
     7
370
    25
100
AcDbLine
 10
-102.4348751853
 20
107.424782109
 30
0.0
 11
-104.4044906913
 21
107.0774857537
 31
0.0
  0
LINE
  5
246
330
1F
100
AcDbEntity
  8
0
  6
Continuous
 62
     7
370
    25
100
AcDbLine
 10
-13.2116054916
 20
62.3720528201
 30
0.0
 11
-21.6757071067
 21
55.7117987823
 31
0.0
  0
LINE
  5
247
330
1F
100
AcDbEntity
  8
0
  6
Continuous
 62
     7
370
    25
100
AcDbLine
 10
-14.9436562992
 20
63.3720528201
 30
0.0
 11
-13.2116054916
 21
62.3720528201
 31
0.0
  0
LINE
  5
248
330
1F
100
AcDbEntity
  8
0
  6
Continuous
 62
     7
370
    25
100
AcDbLine
 10
-7.4436562992
 20
76.3624338769
 30
0.0
 11
-14.9436562992
 21
63.3720528201
 31
0.0
  0
LINE
  5
249
330
1F
100
AcDbEntity
  8
0
  6
Continuous
 62
     7
370
    25
100
AcDbLine
 10
-10.9077579143
 20
78.3624338769
 30
0.0
 11
-7.4436562992
 21
76.3624338769
 31
0.0
  0
LINE
  5
24A
330
1F
100
AcDbEntity
  8
0
  6
Continuous
 62
     7
370
    25
100
AcDbLine
 10
-10.9077579143
 20
78.3624338769
 30
0.0
 11
-18.4077579143
 21
65.3720528201
 31
0.0
  0
LINE
  5
24B
330
1F
100
AcDbEntity
  8
0
  6
Continuous
 62
     7
370
    25
100
AcDbLine
 10
-18.4077579143
 20
65.3720528201
 30
0.0
 11
-20.1398087219
 21
66.3720528201
 31
0.0
  0
LINE
  5
24C
330
1F
100
AcDbEntity
  8
0
  6
Continuous
 62
     7
370
    25
100
AcDbLine
 10
-20.1398087219
 20
66.3720528201
 30
0.0
 11
-21.6757071067
 21
55.7117987823
 31
0.0
  0
LINE
  5
24D
330
1F
100
AcDbEntity
  8
0
  6
Continuous
 62
     7
370
    25
100
AcDbLine
 10
-124.0922420857
 20
52.3816717634
 30
0.0
 11
-116.5922420857
 21
39.3912907066
 31
0.0
  0
LINE
  5
24E
330
1F
100
AcDbEntity
  8
0
  6
Continuous
 62
     7
370
    25
100
AcDbLine
 10
-127.5563437008
 20
50.3816717634
 30
0.0
 11
-124.0922420857
 21
52.3816717634
 31
0.0
  0
LINE
  5
24F
330
1F
100
AcDbEntity
  8
0
  6
Continuous
 62
     7
370
    25
100
AcDbLine
 10
-127.5563437008
 20
50.3816717634
 30
0.0
 11
-120.0563437008
 21
37.3912907066
 31
0.0
  0
LINE
  5
250
330
1F
100
AcDbEntity
  8
0
  6
Continuous
 62
     7
370
    25
100
AcDbLine
 10
-120.0563437008
 20
37.3912907066
 30
0.0
 11
-121.7883945084
 21
36.3912907066
 31
0.0
  0
LINE
  5
251
330
1F
100
AcDbEntity
  8
0
  6
Continuous
 62
     7
370
    25
100
AcDbLine
 10
-121.7883945084
 20
36.3912907066
 30
0.0
 11
-113.3242928933
 21
29.7310366688
 31
0.0
  0
LINE
  5
252
330
1F
100
AcDbEntity
  8
0
  6
Continuous
 62
     7
370
    25
100
AcDbLine
 10
-114.8601912781
 20
40.3912907066
 30
0.0
 11
-113.3242928933
 21
29.7310366688
 31
0.0
  0
LINE
  5
253
330
1F
100
AcDbEntity
  8
0
  6
Continuous
 62
     7
370
    25
100
AcDbLine
 10
-116.5922420857
 20
39.3912907066
 30
0.0
 11
-114.8601912781
 21
40.3912907066
 31
0.0
  0
LINE
  5
254
330
1F
100
AcDbEntity
  8
0
  6
Continuous
 62
     7
370
    25
100
AcDbLine
 10
-77.0
 20
215.0
 30
0.0
 11
-77.0
 21
200.0
 31
0.0
  0
LINE
  5
255
330
1F
100
AcDbEntity
  8
0
  6
Continuous
 62
     7
370
    25
100
AcDbLine
 10
-77.0
 20
200.0
 30
0.0
 11
-79.0
 21
200.0
 31
0.0
  0
LINE
  5
256
330
1F
100
AcDbEntity
  8
0
  6
Continuous
 62
     7
370
    25
100
AcDbLine
 10
-79.0
 20
200.0
 30
0.0
 11
-75.0
 21
190.0
 31
0.0
  0
LINE
  5
257
330
1F
100
AcDbEntity
  8
0
  6
Continuous
 62
     7
370
    25
100
AcDbLine
 10
-71.0
 20
200.0
 30
0.0
 11
-75.0
 21
190.0
 31
0.0
  0
LINE
  5
258
330
1F
100
AcDbEntity
  8
0
  6
Continuous
 62
     7
370
    25
100
AcDbLine
 10
-73.0
 20
200.0
 30
0.0
 11
-71.0
 21
200.0
 31
0.0
  0
LINE
  5
259
330
1F
100
AcDbEntity
  8
0
  6
Continuous
 62
     7
370
    25
100
AcDbLine
 10
-73.0
 20
215.0
 30
0.0
 11
-73.0
 21
200.0
 31
0.0
  0
LINE
  5
25A
330
1F
100
AcDbEntity
  8
0
  6
Continuous
 62
     7
370
    25
100
AcDbLine
 10
-77.0
 20
215.0
 30
0.0
 11
-73.0
 21
215.0
 31
0.0
  0
LINE
  5
25B
330
1F
100
AcDbEntity
  8
0
  6
Continuous
 62
     7
370
    25
100
AcDbLine
 10
-125.8773791703
 20
240.3738287656
 30
0.0
 11
-123.2726565053
 21
225.6017124705
 31
0.0
  0
LINE
  5
25C
330
1F
100
AcDbEntity
  8
0
  6
Continuous
 62
     7
370
    25
100
AcDbLine
 10
-123.2726565053
 20
225.6017124705
 30
0.0
 11
-125.2422720113
 21
225.2544161151
 31
0.0
  0
LINE
  5
25D
330
1F
100
AcDbEntity
  8
0
  6
Continuous
 62
     7
370
    25
100
AcDbLine
 10
-125.2422720113
 20
225.2544161151
 30
0.0
 11
-119.5665592226
 21
216.1009312957
 31
0.0
  0
LINE
  5
25E
330
1F
100
AcDbEntity
  8
0
  6
Continuous
 62
     7
370
    25
100
AcDbLine
 10
-117.3638099872
 20
226.6436015365
 30
0.0
 11
-119.5665592226
 21
216.1009312957
 31
0.0
  0
LINE
  5
25F
330
1F
100
AcDbEntity
  8
0
  6
Continuous
 62
     7
370
    25
100
AcDbLine
 10
-119.3334254933
 20
226.2963051811
 30
0.0
 11
-117.3638099872
 21
226.6436015365
 31
0.0
  0
LINE
  5
260
330
1F
100
AcDbEntity
  8
0
  6
Continuous
 62
     7
370
    25
100
AcDbLine
 10
-121.9381481583
 20
241.0684214763
 30
0.0
 11
-119.3334254933
 21
226.2963051811
 31
0.0
  0
LINE
  5
261
330
1F
100
AcDbEntity
  8
0
  6
Continuous
 62
     7
370
    25
100
AcDbLine
 10
-125.8773791703
 20
240.3738287656
 30
0.0
 11
-121.9381481583
 21
241.0684214763
 31
0.0
  0
LINE
  5
262
330
1F
100
AcDbEntity
  8
0
  6
Continuous
 62
     7
370
    25
100
AcDbLine
 10
-109.6139360213
 20
136.621718344
 30
0.0
 11
-103.9382232326
 21
127.4682335246
 31
0.0
  0
LINE
  5
263
330
1F
100
AcDbEntity
  8
0
  6
Continuous
 62
     7
370
    25
100
AcDbLine
 10
-101.7354739972
 20
138.0109037654
 30
0.0
 11
-103.9382232326
 21
127.4682335246
 31
0.0
  0
LINE
  5
264
330
1F
100
AcDbEntity
  8
0
  6
Continuous
 62
     7
370
    25
100
AcDbLine
 10
-103.7050895032
 20
137.66360741
 30
0.0
 11
-101.7354739972
 21
138.0109037654
 31
0.0
  0
LINE
  5
265
330
1F
100
AcDbEntity
  8
0
  6
Continuous
 62
     7
370
    25
100
AcDbLine
 10
-106.3098121682
 20
152.4357237052
 30
0.0
 11
-103.7050895032
 21
137.66360741
 31
0.0
  0
LINE
  5
266
330
1F
100
AcDbEntity
  8
0
  6
Continuous
 62
     7
370
    25
100
AcDbLine
 10
-110.2490431803
 20
151.7411309945
 30
0.0
 11
-106.3098121682
 21
152.4357237052
 31
0.0
  0
LINE
  5
267
330
1F
100
AcDbEntity
  8
0
  6
Continuous
 62
     7
370
    25
100
AcDbLine
 10
-110.2490431803
 20
151.7411309945
 30
0.0
 11
-107.6443205153
 21
136.9690146994
 31
0.0
  0
LINE
  5
268
330
1F
100
AcDbEntity
  8
0
  6
Continuous
 62
     7
370
    25
100
AcDbLine
 10
-107.6443205153
 20
136.9690146994
 30
0.0
 11
-109.6139360213
 21
136.621718344
 31
0.0
  0
LINE
  5
269
330
1F
100
AcDbEntity
  8
0
  6
Continuous
 62
     7
370
    25
100
AcDbLine
 10
-40.3860639787
 20
136.621718344
 30
0.0
 11
-46.0617767674
 21
127.4682335246
 31
0.0
  0
LINE
  5
26A
330
1F
100
AcDbEntity
  8
0
  6
Continuous
 62
     7
370
    25
100
AcDbLine
 10
-42.3556794847
 20
136.9690146994
 30
0.0
 11
-40.3860639787
 21
136.621718344
 31
0.0
  0
LINE
  5
26B
330
1F
100
AcDbEntity
  8
0
  6
Continuous
 62
     7
370
    25
100
AcDbLine
 10
-39.7509568197
 20
151.7411309945
 30
0.0
 11
-42.3556794847
 21
136.9690146994
 31
0.0
  0
LINE
  5
26C
330
1F
100
AcDbEntity
  8
0
  6
Continuous
 62
     7
370
    25
100
AcDbLine
 10
-43.6901878317
 20
152.4357237052
 30
0.0
 11
-39.7509568197
 21
151.7411309945
 31
0.0
  0
LINE
  5
26D
330
1F
100
AcDbEntity
  8
0
  6
Continuous
 62
     7
370
    25
100
AcDbLine
 10
-43.6901878317
 20
152.4357237052
 30
0.0
 11
-46.2949104968
 21
137.66360741
 31
0.0
  0
LINE
  5
26E
330
1F
100
AcDbEntity
  8
0
  6
Continuous
 62
     7
370
    25
100
AcDbLine
 10
-46.2949104968
 20
137.66360741
 30
0.0
 11
-48.2645260028
 21
138.0109037654
 31
0.0
  0
LINE
  5
26F
330
1F
100
AcDbEntity
  8
0
  6
Continuous
 62
     7
370
    25
100
AcDbLine
 10
-48.2645260028
 20
138.0109037654
 30
0.0
 11
-46.0617767674
 21
127.4682335246
 31
0.0
  0
LINE
  5
270
330
1F
100
AcDbEntity
  8
0
  6
Continuous
 62
     7
370
    25
100
AcDbLine
 10
-45.5955093087
 20
107.0774857537
 30
0.0
 11
-51.2712220974
 21
97.9240009342
 31
0.0
  0
LINE
  5
271
330
1F
100
AcDbEntity
  8
0
  6
Continuous
 62
     7
370
    25
100
AcDbLine
 10
-47.5651248147
 20
107.424782109
 30
0.0
 11
-45.5955093087
 21
107.0774857537
 31
0.0
  0
LINE
  5
272
330
1F
100
AcDbEntity
  8
0
  6
Continuous
 62
     7
370
    25
100
AcDbLine
 10
-44.9604021497
 20
122.1968984042
 30
0.0
 11
-47.5651248147
 21
107.424782109
 31
0.0
  0
LINE
  5
273
330
1F
100
AcDbEntity
  8
0
  6
Continuous
 62
     7
370
    25
100
AcDbLine
 10
-48.8996331618
 20
122.8914911148
 30
0.0
 11
-44.9604021497
 21
122.1968984042
 31
0.0
  0
LINE
  5
274
330
1F
100
AcDbEntity
  8
0
  6
Continuous
 62
     7
370
    25
100
AcDbLine
 10
-48.8996331618
 20
122.8914911148
 30
0.0
 11
-51.5043558268
 21
108.1193748197
 31
0.0
  0
LINE
  5
275
330
1F
100
AcDbEntity
  8
0
  6
Continuous
 62
     7
370
    25
100
AcDbLine
 10
-51.5043558268
 20
108.1193748197
 30
0.0
 11
-53.4739713328
 21
108.466671175
 31
0.0
  0
LINE
  5
276
330
1F
100
AcDbEntity
  8
0
  6
Continuous
 62
     7
370
    25
100
AcDbLine
 10
-53.4739713328
 20
108.466671175
 30
0.0
 11
-51.2712220974
 21
97.9240009342
 31
0.0
  0
LINE
  5
277
330
1F
100
AcDbEntity
  8
0
  6
Continuous
 62
     7
370
    25
100
AcDbLine
 10
-10.8238548879
 20
127.978706176
 30
0.0
 11
-18.0028268043
 21
119.9498605415
 31
0.0
  0
LINE
  5
278
330
1F
100
AcDbEntity
  8
0
  6
Continuous
 62
     7
370
    25
100
AcDbLine
 10
-12.7032401294
 20
128.6627464627
 30
0.0
 11
-10.8238548879
 21
127.978706176
 31
0.0
  0
LINE
  5
279
330
1F
100
AcDbEntity
  8
0
  6
Continuous
 62
     7
370
    25
100
AcDbLine
 10
-7.5729379796
 20
142.7581357745
 30
0.0
 11
-12.7032401294
 21
128.6627464627
 31
0.0
  0
LINE
  5
27A
330
1F
100
AcDbEntity
  8
0
  6
Continuous
 62
     7
370
    25
100
AcDbLine
 10
-11.3317084627
 20
144.1262163478
 30
0.0
 11
-7.5729379796
 21
142.7581357745
 31
0.0
  0
LINE
  5
27B
330
1F
100
AcDbEntity
  8
0
  6
Continuous
 62
     7
370
    25
100
AcDbLine
 10
-11.3317084627
 20
144.1262163478
 30
0.0
 11
-16.4620106126
 21
130.030827036
 31
0.0
  0
LINE
  5
27C
330
1F
100
AcDbEntity
  8
0
  6
Continuous
 62
     7
370
    25
100
AcDbLine
 10
-16.4620106126
 20
130.030827036
 30
0.0
 11
-18.3413958542
 21
130.7148673226
 31
0.0
  0
LINE
  5
27D
330
1F
100
AcDbEntity
  8
0
  6
Continuous
 62
     7
370
    25
100
AcDbLine
 10
-18.3413958542
 20
130.7148673226
 30
0.0
 11
-18.0028268043
 21
119.9498605415
 31
0.0
  0
LINE
  5
27E
330
1F
100
AcDbEntity
  8
0
  6
Continuous
 62
     7
370
    25
100
AcDbLine
 10
-71.0
 20
50.0
 30
0.0
 11
-75.0
 21
40.0
 31
0.0
  0
LINE
  5
27F
330
1F
100
AcDbEntity
  8
0
  6
Continuous
 62
     7
370
    25
100
AcDbLine
 10
-73.0
 20
50.0
 30
0.0
 11
-71.0
 21
50.0
 31
0.0
  0
LINE
  5
280
330
1F
100
AcDbEntity
  8
0
  6
Continuous
 62
     7
370
    25
100
AcDbLine
 10
-73.0
 20
65.0
 30
0.0
 11
-73.0
 21
50.0
 31
0.0
  0
LINE
  5
281
330
1F
100
AcDbEntity
  8
0
  6
Continuous
 62
     7
370
    25
100
AcDbLine
 10
-77.0
 20
65.0
 30
0.0
 11
-73.0
 21
65.0
 31
0.0
  0
LINE
  5
282
330
1F
100
AcDbEntity
  8
0
  6
Continuous
 62
     7
370
    25
100
AcDbLine
 10
-77.0
 20
65.0
 30
0.0
 11
-77.0
 21
50.0
 31
0.0
  0
LINE
  5
283
330
1F
100
AcDbEntity
  8
0
  6
Continuous
 62
     7
370
    25
100
AcDbLine
 10
-77.0
 20
50.0
 30
0.0
 11
-79.0
 21
50.0
 31
0.0
  0
LINE
  5
284
330
1F
100
AcDbEntity
  8
0
  6
Continuous
 62
     7
370
    25
100
AcDbLine
 10
-79.0
 20
50.0
 30
0.0
 11
-75.0
 21
40.0
 31
0.0
  0
LINE
  5
285
330
1F
100
AcDbEntity
  8
0
  6
Continuous
 62
     7
370
    25
100
AcDbLine
 10
-73.0
 20
125.0
 30
0.0
 11
-73.0
 21
110.0
 31
0.0
  0
LINE
  5
286
330
1F
100
AcDbEntity
  8
0
  6
Continuous
 62
     7
370
    25
100
AcDbLine
 10
-77.0
 20
125.0
 30
0.0
 11
-73.0
 21
125.0
 31
0.0
  0
LINE
  5
287
330
1F
100
AcDbEntity
  8
0
  6
Continuous
 62
     7
370
    25
100
AcDbLine
 10
-77.0
 20
125.0
 30
0.0
 11
-77.0
 21
110.0
 31
0.0
  0
LINE
  5
288
330
1F
100
AcDbEntity
  8
0
  6
Continuous
 62
     7
370
    25
100
AcDbLine
 10
-77.0
 20
110.0
 30
0.0
 11
-79.0
 21
110.0
 31
0.0
  0
LINE
  5
289
330
1F
100
AcDbEntity
  8
0
  6
Continuous
 62
     7
370
    25
100
AcDbLine
 10
-79.0
 20
110.0
 30
0.0
 11
-75.0
 21
100.0
 31
0.0
  0
LINE
  5
28A
330
1F
100
AcDbEntity
  8
0
  6
Continuous
 62
     7
370
    25
100
AcDbLine
 10
-71.0
 20
110.0
 30
0.0
 11
-75.0
 21
100.0
 31
0.0
  0
LINE
  5
28B
330
1F
100
AcDbEntity
  8
0
  6
Continuous
 62
     7
370
    25
100
AcDbLine
 10
-73.0
 20
110.0
 30
0.0
 11
-71.0
 21
110.0
 31
0.0
  0
LINE
  5
28C
330
1F
100
AcDbEntity
  8
0
  6
Continuous
 62
     7
370
    25
100
AcDbLine
 10
-22.4436562992
 20
50.3816717634
 30
0.0
 11
-29.9436562992
 21
37.3912907066
 31
0.0
  0
LINE
  5
28D
330
1F
100
AcDbEntity
  8
0
  6
Continuous
 62
     7
370
    25
100
AcDbLine
 10
-25.9077579143
 20
52.3816717634
 30
0.0
 11
-22.4436562992
 21
50.3816717634
 31
0.0
  0
LINE
  5
28E
330
1F
100
AcDbEntity
  8
0
  6
Continuous
 62
     7
370
    25
100
AcDbLine
 10
-25.9077579143
 20
52.3816717634
 30
0.0
 11
-33.4077579143
 21
39.3912907066
 31
0.0
  0
LINE
  5
28F
330
1F
100
AcDbEntity
  8
0
  6
Continuous
 62
     7
370
    25
100
AcDbLine
 10
-33.4077579143
 20
39.3912907066
 30
0.0
 11
-35.1398087219
 21
40.3912907066
 31
0.0
  0
LINE
  5
290
330
1F
100
AcDbEntity
  8
0
  6
Continuous
 62
     7
370
    25
100
AcDbLine
 10
-35.1398087219
 20
40.3912907066
 30
0.0
 11
-36.6757071067
 21
29.7310366688
 31
0.0
  0
LINE
  5
291
330
1F
100
AcDbEntity
  8
0
  6
Continuous
 62
     7
370
    25
100
AcDbLine
 10
-28.2116054916
 20
36.3912907066
 30
0.0
 11
-36.6757071067
 21
29.7310366688
 31
0.0
  0
LINE
  5
292
330
1F
100
AcDbEntity
  8
0
  6
Continuous
 62
     7
370
    25
100
AcDbLine
 10
-29.9436562992
 20
37.3912907066
 30
0.0
 11
-28.2116054916
 21
36.3912907066
 31
0.0
  0
LINE
  5
293
330
1F
100
AcDbEntity
  8
0
  6
Continuous
 62
     7
370
    25
100
AcDbLine
 10
-128.4076872375
 20
115.9354377242
 30
0.0
 11
-123.2773850876
 21
101.8400484124
 31
0.0
  0
LINE
  5
294
330
1F
100
AcDbEntity
  8
0
  6
Continuous
 62
     7
370
    25
100
AcDbLine
 10
-132.1664577207
 20
114.5673571509
 30
0.0
 11
-128.4076872375
 21
115.9354377242
 31
0.0
  0
LINE
  5
295
330
1F
100
AcDbEntity
  8
0
  6
Continuous
 62
     7
370
    25
100
AcDbLine
 10
-132.1664577207
 20
114.5673571509
 30
0.0
 11
-127.0361555708
 21
100.4719678391
 31
0.0
  0
LINE
  5
296
330
1F
100
AcDbEntity
  8
0
  6
Continuous
 62
     7
370
    25
100
AcDbLine
 10
-127.0361555708
 20
100.4719678391
 30
0.0
 11
-128.9155408124
 21
99.7879275525
 31
0.0
  0
LINE
  5
297
330
1F
100
AcDbEntity
  8
0
  6
Continuous
 62
     7
370
    25
100
AcDbLine
 10
-128.9155408124
 20
99.7879275525
 30
0.0
 11
-121.736568896
 21
91.7590819179
 31
0.0
  0
LINE
  5
298
330
1F
100
AcDbEntity
  8
0
  6
Continuous
 62
     7
370
    25
100
AcDbLine
 10
-121.3979998461
 20
102.5240886991
 30
0.0
 11
-121.736568896
 21
91.7590819179
 31
0.0
  0
LINE
  5
299
330
1F
100
AcDbEntity
  8
0
  6
Continuous
 62
     7
370
    25
100
AcDbLine
 10
-123.2773850876
 20
101.8400484124
 30
0.0
 11
-121.3979998461
 21
102.5240886991
 31
0.0
  0
LINE
  5
29A
330
1F
100
AcDbEntity
  8
0
  6
Continuous
 62
     7
370
    25
100
AcDbLine
 10
-8.129459628
 20
39.9331732868
 30
0.0
 11
-17.7712737733
 21
28.44250664
 31
0.0
  0
LINE
  5
29B
330
1F
100
AcDbEntity
  8
0
  6
Continuous
 62
     7
370
    25
100
AcDbLine
 10
-11.1936374005
 20
42.5043237255
 30
0.0
 11
-8.129459628
 21
39.9331732868
 31
0.0
  0
LINE
  5
29C
330
1F
100
AcDbEntity
  8
0
  6
Continuous
 62
     7
370
    25
100
AcDbLine
 10
-11.1936374005
 20
42.5043237255
 30
0.0
 11
-20.8354515458
 21
31.0136570787
 31
0.0
  0
LINE
  5
29D
330
1F
100
AcDbEntity
  8
0
  6
Continuous
 62
     7
370
    25
100
AcDbLine
 10
-20.8354515458
 20
31.0136570787
 30
0.0
 11
-22.367540432
 21
32.2992322981
 31
0.0
  0
LINE
  5
29E
330
1F
100
AcDbEntity
  8
0
  6
Continuous
 62
     7
370
    25
100
AcDbLine
 10
-22.367540432
 20
32.2992322981
 30
0.0
 11
-25.7312387564
 21
22.0676374282
 31
0.0
  0
LINE
  5
29F
330
1F
100
AcDbEntity
  8
0
  6
Continuous
 62
     7
370
    25
100
AcDbLine
 10
-16.2391848871
 20
27.1569314206
 30
0.0
 11
-25.7312387564
 21
22.0676374282
 31
0.0
  0
LINE
  5
2A0
330
1F
100
AcDbEntity
  8
0
  6
Continuous
 62
     7
370
    25
100
AcDbLine
 10
-17.7712737733
 20
28.44250664
 30
0.0
 11
-16.2391848871
 21
27.1569314206
 31
0.0
  0
LINE
  5
2A1
330
1F
100
AcDbEntity
  8
0
  6
Continuous
 62
     7
370
    25
100
AcDbLine
 10
-37.4436562992
 20
24.4009096498
 30
0.0
 11
-44.9436562992
 21
11.4105285931
 31
0.0
  0
LINE
  5
2A2
330
1F
100
AcDbEntity
  8
0
  6
Continuous
 62
     7
370
    25
100
AcDbLine
 10
-40.9077579143
 20
26.4009096498
 30
0.0
 11
-37.4436562992
 21
24.4009096498
 31
0.0
  0
LINE
  5
2A3
330
1F
100
AcDbEntity
  8
0
  6
Continuous
 62
     7
370
    25
100
AcDbLine
 10
-40.9077579143
 20
26.4009096498
 30
0.0
 11
-48.4077579143
 21
13.4105285931
 31
0.0
  0
LINE
  5
2A4
330
1F
100
AcDbEntity
  8
0
  6
Continuous
 62
     7
370
    25
100
AcDbLine
 10
-48.4077579143
 20
13.4105285931
 30
0.0
 11
-50.1398087219
 21
14.4105285931
 31
0.0
  0
LINE
  5
2A5
330
1F
100
AcDbEntity
  8
0
  6
Continuous
 62
     7
370
    25
100
AcDbLine
 10
-50.1398087219
 20
14.4105285931
 30
0.0
 11
-51.6757071067
 21
3.7502745552
 31
0.0
  0
LINE
  5
2A6
330
1F
100
AcDbEntity
  8
0
  6
Continuous
 62
     7
370
    25
100
AcDbLine
 10
-43.2116054916
 20
10.4105285931
 30
0.0
 11
-51.6757071067
 21
3.7502745552
 31
0.0
  0
LINE
  5
2A7
330
1F
100
AcDbEntity
  8
0
  6
Continuous
 62
     7
370
    25
100
AcDbLine
 10
-44.9436562992
 20
11.4105285931
 30
0.0
 11
-43.2116054916
 21
10.4105285931
 31
0.0
  0
LINE
  5
2A8
330
1F
100
AcDbEntity
  8
0
  6
Continuous
 62
     7
370
    25
100
AcDbLine
 10
-55.3792928097
 20
63.1084332234
 30
0.0
 11
-57.9840154747
 21
48.3363169283
 31
0.0
  0
LINE
  5
2A9
330
1F
100
AcDbEntity
  8
0
  6
Continuous
 62
     7
370
    25
100
AcDbLine
 10
-59.3185238218
 20
63.8030259341
 30
0.0
 11
-55.3792928097
 21
63.1084332234
 31
0.0
  0
LINE
  5
2AA
330
1F
100
AcDbEntity
  8
0
  6
Continuous
 62
     7
370
    25
100
AcDbLine
 10
-59.3185238218
 20
63.8030259341
 30
0.0
 11
-61.9232464868
 21
49.0309096389
 31
0.0
  0
LINE
  5
2AB
330
1F
100
AcDbEntity
  8
0
  6
Continuous
 62
     7
370
    25
100
AcDbLine
 10
-61.9232464868
 20
49.0309096389
 30
0.0
 11
-63.8928619928
 21
49.3782059943
 31
0.0
  0
LINE
  5
2AC
330
1F
100
AcDbEntity
  8
0
  6
Continuous
 62
     7
370
    25
100
AcDbLine
 10
-63.8928619928
 20
49.3782059943
 30
0.0
 11
-61.6901127574
 21
38.8355357535
 31
0.0
  0
LINE
  5
2AD
330
1F
100
AcDbEntity
  8
0
  6
Continuous
 62
     7
370
    25
100
AcDbLine
 10
-56.0143999687
 20
47.9890205729
 30
0.0
 11
-61.6901127574
 21
38.8355357535
 31
0.0
  0
LINE
  5
2AE
330
1F
100
AcDbEntity
  8
0
  6
Continuous
 62
     7
370
    25
100
AcDbLine
 10
-57.9840154747
 20
48.3363169283
 30
0.0
 11
-56.0143999687
 21
47.9890205729
 31
0.0
  0
LINE
  5
2AF
330
1F
100
AcDbEntity
  8
0
  6
Continuous
 62
     7
370
    25
100
AcDbLine
 10
-60.5887381397
 20
33.5642006331
 30
0.0
 11
-63.1934608047
 21
18.7920843379
 31
0.0
  0
LINE
  5
2B0
330
1F
100
AcDbEntity
  8
0
  6
Continuous
 62
     7
370
    25
100
AcDbLine
 10
-64.5279691518
 20
34.2587933437
 30
0.0
 11
-60.5887381397
 21
33.5642006331
 31
0.0
  0
LINE
  5
2B1
330
1F
100
AcDbEntity
  8
0
  6
Continuous
 62
     7
370
    25
100
AcDbLine
 10
-64.5279691518
 20
34.2587933437
 30
0.0
 11
-67.1326918168
 21
19.4866770486
 31
0.0
  0
LINE
  5
2B2
330
1F
100
AcDbEntity
  8
0
  6
Continuous
 62
     7
370
    25
100
AcDbLine
 10
-67.1326918168
 20
19.4866770486
 30
0.0
 11
-69.1023073228
 21
19.8339734039
 31
0.0
  0
LINE
  5
2B3
330
1F
100
AcDbEntity
  8
0
  6
Continuous
 62
     7
370
    25
100
AcDbLine
 10
-69.1023073228
 20
19.8339734039
 30
0.0
 11
-66.8995580874
 21
9.2913031631
 31
0.0
  0
LINE
  5
2B4
330
1F
100
AcDbEntity
  8
0
  6
Continuous
 62
     7
370
    25
100
AcDbLine
 10
-61.2238452987
 20
18.4447879826
 30
0.0
 11
-66.8995580874
 21
9.2913031631
 31
0.0
  0
LINE
  5
2B5
330
1F
100
AcDbEntity
  8
0
  6
Continuous
 62
     7
370
    25
100
AcDbLine
 10
-63.1934608047
 20
18.7920843379
 30
0.0
 11
-61.2238452987
 21
18.4447879826
 31
0.0
  0
LINE
  5
2B6
330
1F
100
AcDbEntity
  8
0
  6
Continuous
 62
     7
370
    25
100
AcDbLine
 10
-138.8063625995
 20
42.5043237255
 30
0.0
 11
-129.1645484542
 21
31.0136570787
 31
0.0
  0
LINE
  5
2B7
330
1F
100
AcDbEntity
  8
0
  6
Continuous
 62
     7
370
    25
100
AcDbLine
 10
-141.870540372
 20
39.9331732868
 30
0.0
 11
-138.8063625995
 21
42.5043237255
 31
0.0
  0
LINE
  5
2B8
330
1F
100
AcDbEntity
  8
0
  6
Continuous
 62
     7
370
    25
100
AcDbLine
 10
-141.870540372
 20
39.9331732868
 30
0.0
 11
-132.2287262267
 21
28.44250664
 31
0.0
  0
LINE
  5
2B9
330
1F
100
AcDbEntity
  8
0
  6
Continuous
 62
     7
370
    25
100
AcDbLine
 10
-132.2287262267
 20
28.44250664
 30
0.0
 11
-133.7608151129
 21
27.1569314206
 31
0.0
  0
LINE
  5
2BA
330
1F
100
AcDbEntity
  8
0
  6
Continuous
 62
     7
370
    25
100
AcDbLine
 10
-133.7608151129
 20
27.1569314206
 30
0.0
 11
-124.2687612436
 21
22.0676374282
 31
0.0
  0
LINE
  5
2BB
330
1F
100
AcDbEntity
  8
0
  6
Continuous
 62
     7
370
    25
100
AcDbLine
 10
-127.632459568
 20
32.2992322981
 30
0.0
 11
-124.2687612436
 21
22.0676374282
 31
0.0
  0
LINE
  5
2BC
330
1F
100
AcDbEntity
  8
0
  6
Continuous
 62
     7
370
    25
100
AcDbLine
 10
-129.1645484542
 20
31.0136570787
 30
0.0
 11
-127.632459568
 21
32.2992322981
 31
0.0
  0
LINE
  5
2BD
330
1F
100
AcDbEntity
  8
0
  6
Continuous
 62
     7
370
    25
100
AcDbLine
 10
-118.1470829378
 20
87.7446591006
 30
0.0
 11
-113.0167807879
 21
73.6492697888
 31
0.0
  0
LINE
  5
2BE
330
1F
100
AcDbEntity
  8
0
  6
Continuous
 62
     7
370
    25
100
AcDbLine
 10
-121.9058534209
 20
86.3765785273
 30
0.0
 11
-118.1470829378
 21
87.7446591006
 31
0.0
  0
LINE
  5
2BF
330
1F
100
AcDbEntity
  8
0
  6
Continuous
 62
     7
370
    25
100
AcDbLine
 10
-121.9058534209
 20
86.3765785273
 30
0.0
 11
-116.775551271
 21
72.2811892155
 31
0.0
  0
LINE
  5
2C0
330
1F
100
AcDbEntity
  8
0
  6
Continuous
 62
     7
370
    25
100
AcDbLine
 10
-116.775551271
 20
72.2811892155
 30
0.0
 11
-118.6549365126
 21
71.5971489289
 31
0.0
  0
LINE
  5
2C1
330
1F
100
AcDbEntity
  8
0
  6
Continuous
 62
     7
370
    25
100
AcDbLine
 10
-118.6549365126
 20
71.5971489289
 30
0.0
 11
-111.4759645962
 21
63.5683032943
 31
0.0
  0
LINE
  5
2C2
330
1F
100
AcDbEntity
  8
0
  6
Continuous
 62
     7
370
    25
100
AcDbLine
 10
-111.1373955463
 20
74.3333100755
 30
0.0
 11
-111.4759645962
 21
63.5683032943
 31
0.0
  0
LINE
  5
2C3
330
1F
100
AcDbEntity
  8
0
  6
Continuous
 62
     7
370
    25
100
AcDbLine
 10
-113.0167807879
 20
73.6492697888
 30
0.0
 11
-111.1373955463
 21
74.3333100755
 31
0.0
  0
LINE
  5
2C4
330
1F
100
AcDbEntity
  8
0
  6
Continuous
 62
     7
370
    25
100
AcDbLine
 10
-95.8909215082
 20
93.3472585245
 30
0.0
 11
-93.2861988432
 21
78.5751422293
 31
0.0
  0
LINE
  5
2C5
330
1F
100
AcDbEntity
  8
0
  6
Continuous
 62
     7
370
    25
100
AcDbLine
 10
-99.8301525203
 20
92.6526658138
 30
0.0
 11
-95.8909215082
 21
93.3472585245
 31
0.0
  0
LINE
  5
2C6
330
1F
100
AcDbEntity
  8
0
  6
Continuous
 62
     7
370
    25
100
AcDbLine
 10
-99.8301525203
 20
92.6526658138
 30
0.0
 11
-97.2254298553
 21
77.8805495186
 31
0.0
  0
LINE
  5
2C7
330
1F
100
AcDbEntity
  8
0
  6
Continuous
 62
     7
370
    25
100
AcDbLine
 10
-97.2254298553
 20
77.8805495186
 30
0.0
 11
-99.1950453613
 21
77.5332531633
 31
0.0
  0
LINE
  5
2C8
330
1F
100
AcDbEntity
  8
0
  6
Continuous
 62
     7
370
    25
100
AcDbLine
 10
-99.1950453613
 20
77.5332531633
 30
0.0
 11
-93.5193325726
 21
68.3797683438
 31
0.0
  0
LINE
  5
2C9
330
1F
100
AcDbEntity
  8
0
  6
Continuous
 62
     7
370
    25
100
AcDbLine
 10
-91.3165833372
 20
78.9224385846
 30
0.0
 11
-93.5193325726
 21
68.3797683438
 31
0.0
  0
LINE
  5
2CA
330
1F
100
AcDbEntity
  8
0
  6
Continuous
 62
     7
370
    25
100
AcDbLine
 10
-93.2861988432
 20
78.5751422293
 30
0.0
 11
-91.3165833372
 21
78.9224385846
 31
0.0
  0
LINE
  5
2CB
330
1F
100
AcDbEntity
  8
0
  6
Continuous
 62
     7
370
    25
100
AcDbLine
 10
-85.4720308482
 20
34.2587933437
 30
0.0
 11
-82.8673081832
 21
19.4866770486
 31
0.0
  0
LINE
  5
2CC
330
1F
100
AcDbEntity
  8
0
  6
Continuous
 62
     7
370
    25
100
AcDbLine
 10
-89.4112618603
 20
33.5642006331
 30
0.0
 11
-85.4720308482
 21
34.2587933437
 31
0.0
  0
LINE
  5
2CD
330
1F
100
AcDbEntity
  8
0
  6
Continuous
 62
     7
370
    25
100
AcDbLine
 10
-89.4112618603
 20
33.5642006331
 30
0.0
 11
-86.8065391953
 21
18.7920843379
 31
0.0
  0
LINE
  5
2CE
330
1F
100
AcDbEntity
  8
0
  6
Continuous
 62
     7
370
    25
100
AcDbLine
 10
-86.8065391953
 20
18.7920843379
 30
0.0
 11
-88.7761547013
 21
18.4447879826
 31
0.0
  0
LINE
  5
2CF
330
1F
100
AcDbEntity
  8
0
  6
Continuous
 62
     7
370
    25
100
AcDbLine
 10
-88.7761547013
 20
18.4447879826
 30
0.0
 11
-83.1004419126
 21
9.2913031631
 31
0.0
  0
LINE
  5
2D0
330
1F
100
AcDbEntity
  8
0
  6
Continuous
 62
     7
370
    25
100
AcDbLine
 10
-80.8976926772
 20
19.8339734039
 30
0.0
 11
-83.1004419126
 21
9.2913031631
 31
0.0
  0
LINE
  5
2D1
330
1F
100
AcDbEntity
  8
0
  6
Continuous
 62
     7
370
    25
100
AcDbLine
 10
-82.8673081832
 20
19.4866770486
 30
0.0
 11
-80.8976926772
 21
19.8339734039
 31
0.0
  0
LINE
  5
2D2
330
1F
100
AcDbEntity
  8
0
  6
Continuous
 62
     7
370
    25
100
AcDbLine
 10
-73.0
 20
20.0
 30
0.0
 11
-71.0
 21
20.0
 31
0.0
  0
LINE
  5
2D3
330
1F
100
AcDbEntity
  8
0
  6
Continuous
 62
     7
370
    25
100
AcDbLine
 10
-73.0
 20
35.0
 30
0.0
 11
-73.0
 21
20.0
 31
0.0
  0
LINE
  5
2D4
330
1F
100
AcDbEntity
  8
0
  6
Continuous
 62
     7
370
    25
100
AcDbLine
 10
-77.0
 20
35.0
 30
0.0
 11
-73.0
 21
35.0
 31
0.0
  0
LINE
  5
2D5
330
1F
100
AcDbEntity
  8
0
  6
Continuous
 62
     7
370
    25
100
AcDbLine
 10
-77.0
 20
35.0
 30
0.0
 11
-77.0
 21
20.0
 31
0.0
  0
LINE
  5
2D6
330
1F
100
AcDbEntity
  8
0
  6
Continuous
 62
     7
370
    25
100
AcDbLine
 10
-77.0
 20
20.0
 30
0.0
 11
-79.0
 21
20.0
 31
0.0
  0
LINE
  5
2D7
330
1F
100
AcDbEntity
  8
0
  6
Continuous
 62
     7
370
    25
100
AcDbLine
 10
-79.0
 20
20.0
 30
0.0
 11
-75.0
 21
10.0
 31
0.0
  0
LINE
  5
2D8
330
1F
100
AcDbEntity
  8
0
  6
Continuous
 62
     7
370
    25
100
AcDbLine
 10
-71.0
 20
20.0
 30
0.0
 11
-75.0
 21
10.0
 31
0.0
  0
LINE
  5
2D9
330
1F
100
AcDbEntity
  8
0
  6
Continuous
 62
     7
370
    25
100
AcDbLine
 10
-109.0922420857
 20
26.4009096498
 30
0.0
 11
-101.5922420857
 21
13.4105285931
 31
0.0
  0
LINE
  5
2DA
330
1F
100
AcDbEntity
  8
0
  6
Continuous
 62
     7
370
    25
100
AcDbLine
 10
-112.5563437008
 20
24.4009096498
 30
0.0
 11
-109.0922420857
 21
26.4009096498
 31
0.0
  0
LINE
  5
2DB
330
1F
100
AcDbEntity
  8
0
  6
Continuous
 62
     7
370
    25
100
AcDbLine
 10
-112.5563437008
 20
24.4009096498
 30
0.0
 11
-105.0563437008
 21
11.4105285931
 31
0.0
  0
LINE
  5
2DC
330
1F
100
AcDbEntity
  8
0
  6
Continuous
 62
     7
370
    25
100
AcDbLine
 10
-105.0563437008
 20
11.4105285931
 30
0.0
 11
-106.7883945084
 21
10.4105285931
 31
0.0
  0
LINE
  5
2DD
330
1F
100
AcDbEntity
  8
0
  6
Continuous
 62
     7
370
    25
100
AcDbLine
 10
-106.7883945084
 20
10.4105285931
 30
0.0
 11
-98.3242928933
 21
3.7502745552
 31
0.0
  0
LINE
  5
2DE
330
1F
100
AcDbEntity
  8
0
  6
Continuous
 62
     7
370
    25
100
AcDbLine
 10
-99.8601912781
 20
14.4105285931
 30
0.0
 11
-98.3242928933
 21
3.7502745552
 31
0.0
  0
LINE
  5
2DF
330
1F
100
AcDbEntity
  8
0
  6
Continuous
 62
     7
370
    25
100
AcDbLine
 10
-101.5922420857
 20
13.4105285931
 30
0.0
 11
-99.8601912781
 21
14.4105285931
 31
0.0
  0
LINE
  5
2E0
330
1F
100
AcDbEntity
  8
0
  6
Continuous
 62
     7
370
    25
100
AcDbLine
 10
-139.0922420857
 20
78.3624338769
 30
0.0
 11
-131.5922420857
 21
65.3720528201
 31
0.0
  0
LINE
  5
2E1
330
1F
100
AcDbEntity
  8
0
  6
Continuous
 62
     7
370
    25
100
AcDbLine
 10
-142.5563437008
 20
76.3624338769
 30
0.0
 11
-139.0922420857
 21
78.3624338769
 31
0.0
  0
LINE
  5
2E2
330
1F
100
AcDbEntity
  8
0
  6
Continuous
 62
     7
370
    25
100
AcDbLine
 10
-142.5563437008
 20
76.3624338769
 30
0.0
 11
-135.0563437008
 21
63.3720528201
 31
0.0
  0
LINE
  5
2E3
330
1F
100
AcDbEntity
  8
0
  6
Continuous
 62
     7
370
    25
100
AcDbLine
 10
-135.0563437008
 20
63.3720528201
 30
0.0
 11
-136.7883945084
 21
62.3720528201
 31
0.0
  0
LINE
  5
2E4
330
1F
100
AcDbEntity
  8
0
  6
Continuous
 62
     7
370
    25
100
AcDbLine
 10
-136.7883945084
 20
62.3720528201
 30
0.0
 11
-128.3242928933
 21
55.7117987823
 31
0.0
  0
LINE
  5
2E5
330
1F
100
AcDbEntity
  8
0
  6
Continuous
 62
     7
370
    25
100
AcDbLine
 10
-129.8601912781
 20
66.3720528201
 30
0.0
 11
-128.3242928933
 21
55.7117987823
 31
0.0
  0
LINE
  5
2E6
330
1F
100
AcDbEntity
  8
0
  6
Continuous
 62
     7
370
    25
100
AcDbLine
 10
-131.5922420857
 20
65.3720528201
 30
0.0
 11
-129.8601912781
 21
66.3720528201
 31
0.0
  0
LINE
  5
2E7
330
1F
100
AcDbEntity
  8
0
  6
Continuous
 62
     7
370
    25
100
AcDbLine
 10
-73.0
 20
95.0
 30
0.0
 11
-73.0
 21
80.0
 31
0.0
  0
LINE
  5
2E8
330
1F
100
AcDbEntity
  8
0
  6
Continuous
 62
     7
370
    25
100
AcDbLine
 10
-77.0
 20
95.0
 30
0.0
 11
-73.0
 21
95.0
 31
0.0
  0
LINE
  5
2E9
330
1F
100
AcDbEntity
  8
0
  6
Continuous
 62
     7
370
    25
100
AcDbLine
 10
-77.0
 20
95.0
 30
0.0
 11
-77.0
 21
80.0
 31
0.0
  0
LINE
  5
2EA
330
1F
100
AcDbEntity
  8
0
  6
Continuous
 62
     7
370
    25
100
AcDbLine
 10
-77.0
 20
80.0
 30
0.0
 11
-79.0
 21
80.0
 31
0.0
  0
LINE
  5
2EB
330
1F
100
AcDbEntity
  8
0
  6
Continuous
 62
     7
370
    25
100
AcDbLine
 10
-79.0
 20
80.0
 30
0.0
 11
-75.0
 21
70.0
 31
0.0
  0
LINE
  5
2EC
330
1F
100
AcDbEntity
  8
0
  6
Continuous
 62
     7
370
    25
100
AcDbLine
 10
-71.0
 20
80.0
 30
0.0
 11
-75.0
 21
70.0
 31
0.0
  0
LINE
  5
2ED
330
1F
100
AcDbEntity
  8
0
  6
Continuous
 62
     7
370
    25
100
AcDbLine
 10
-73.0
 20
80.0
 30
0.0
 11
-71.0
 21
80.0
 31
0.0
  0
LINE
  5
2EE
330
1F
100
AcDbEntity
  8
0
  6
Continuous
 62
     7
370
    25
100
AcDbLine
 10
-38.3547508789
 20
58.1857999037
 30
0.0
 11
-43.4850530288
 21
44.090410592
 31
0.0
  0
LINE
  5
2EF
330
1F
100
AcDbEntity
  8
0
  6
Continuous
 62
     7
370
    25
100
AcDbLine
 10
-42.113521362
 20
59.553880477
 30
0.0
 11
-38.3547508789
 21
58.1857999037
 31
0.0
  0
LINE
  5
2F0
330
1F
100
AcDbEntity
  8
0
  6
Continuous
 62
     7
370
    25
100
AcDbLine
 10
-42.113521362
 20
59.553880477
 30
0.0
 11
-47.2438235119
 21
45.4584911653
 31
0.0
  0
LINE
  5
2F1
330
1F
100
AcDbEntity
  8
0
  6
Continuous
 62
     7
370
    25
100
AcDbLine
 10
-47.2438235119
 20
45.4584911653
 30
0.0
 11
-49.1232087535
 21
46.1425314519
 31
0.0
  0
LINE
  5
2F2
330
1F
100
AcDbEntity
  8
0
  6
Continuous
 62
     7
370
    25
100
AcDbLine
 10
-49.1232087535
 20
46.1425314519
 30
0.0
 11
-48.7846397036
 21
35.3775246707
 31
0.0
  0
LINE
  5
2F3
330
1F
100
AcDbEntity
  8
0
  6
Continuous
 62
     7
370
    25
100
AcDbLine
 10
-41.6056677872
 20
43.4063703053
 30
0.0
 11
-48.7846397036
 21
35.3775246707
 31
0.0
  0
LINE
  5
2F4
330
1F
100
AcDbEntity
  8
0
  6
Continuous
 62
     7
370
    25
100
AcDbLine
 10
-43.4850530288
 20
44.090410592
 30
0.0
 11
-41.6056677872
 21
43.4063703053
 31
0.0
  0
LINE
  5
2F5
330
1F
100
AcDbEntity
  8
0
  6
Continuous
 62
     7
370
    25
100
AcDbLine
 10
-90.6814761782
 20
63.8030259341
 30
0.0
 11
-88.0767535132
 21
49.0309096389
 31
0.0
  0
LINE
  5
2F6
330
1F
100
AcDbEntity
  8
0
  6
Continuous
 62
     7
370
    25
100
AcDbLine
 10
-94.6207071903
 20
63.1084332234
 30
0.0
 11
-90.6814761782
 21
63.8030259341
 31
0.0
  0
LINE
  5
2F7
330
1F
100
AcDbEntity
  8
0
  6
Continuous
 62
     7
370
    25
100
AcDbLine
 10
-94.6207071903
 20
63.1084332234
 30
0.0
 11
-92.0159845253
 21
48.3363169283
 31
0.0
  0
LINE
  5
2F8
330
1F
100
AcDbEntity
  8
0
  6
Continuous
 62
     7
370
    25
100
AcDbLine
 10
-92.0159845253
 20
48.3363169283
 30
0.0
 11
-93.9856000313
 21
47.9890205729
 31
0.0
  0
LINE
  5
2F9
330
1F
100
AcDbEntity
  8
0
  6
Continuous
 62
     7
370
    25
100
AcDbLine
 10
-93.9856000313
 20
47.9890205729
 30
0.0
 11
-88.3098872426
 21
38.8355357535
 31
0.0
  0
LINE
  5
2FA
330
1F
100
AcDbEntity
  8
0
  6
Continuous
 62
     7
370
    25
100
AcDbLine
 10
-86.1071380072
 20
49.3782059943
 30
0.0
 11
-88.3098872426
 21
38.8355357535
 31
0.0
  0
LINE
  5
2FB
330
1F
100
AcDbEntity
  8
0
  6
Continuous
 62
     7
370
    25
100
AcDbLine
 10
-88.0767535132
 20
49.0309096389
 30
0.0
 11
-86.1071380072
 21
49.3782059943
 31
0.0
  0
LINE
  5
2FC
330
1F
100
AcDbEntity
  8
0
  6
Continuous
 62
     7
370
    25
100
AcDbLine
 10
-97.6258743382
 20
31.3631018535
 30
0.0
 11
-92.4955721883
 21
17.2677125417
 31
0.0
  0
LINE
  5
2FD
330
1F
100
AcDbEntity
  8
0
  6
Continuous
 62
     7
370
    25
100
AcDbLine
 10
-101.3846448214
 20
29.9950212802
 30
0.0
 11
-97.6258743382
 21
31.3631018535
 31
0.0
  0
LINE
  5
2FE
330
1F
100
AcDbEntity
  8
0
  6
Continuous
 62
     7
370
    25
100
AcDbLine
 10
-101.3846448214
 20
29.9950212802
 30
0.0
 11
-96.2543426715
 21
15.8996319684
 31
0.0
  0
LINE
  5
2FF
330
1F
100
AcDbEntity
  8
0
  6
Continuous
 62
     7
370
    25
100
AcDbLine
 10
-96.2543426715
 20
15.8996319684
 30
0.0
 11
-98.133727913
 21
15.2155916817
 31
0.0
  0
LINE
  5
300
330
1F
100
AcDbEntity
  8
0
  6
Continuous
 62
     7
370
    25
100
AcDbLine
 10
-98.133727913
 20
15.2155916817
 30
0.0
 11
-90.9547559966
 21
7.1867460472
 31
0.0
  0
LINE
  5
301
330
1F
100
AcDbEntity
  8
0
  6
Continuous
 62
     7
370
    25
100
AcDbLine
 10
-90.6161869468
 20
17.9517528283
 30
0.0
 11
-90.9547559966
 21
7.1867460472
 31
0.0
  0
LINE
  5
302
330
1F
100
AcDbEntity
  8
0
  6
Continuous
 62
     7
370
    25
100
AcDbLine
 10
-92.4955721883
 20
17.2677125417
 30
0.0
 11
-90.6161869468
 21
17.9517528283
 31
0.0
  0
LINE
  5
303
330
1F
100
AcDbEntity
  8
0
  6
Continuous
 62
     7
370
    25
100
AcDbLine
 10
-48.6153551786
 20
29.9950212802
 30
0.0
 11
-53.7456573285
 21
15.8996319684
 31
0.0
  0
LINE
  5
304
330
1F
100
AcDbEntity
  8
0
  6
Continuous
 62
     7
370
    25
100
AcDbLine
 10
-52.3741256618
 20
31.3631018535
 30
0.0
 11
-48.6153551786
 21
29.9950212802
 31
0.0
  0
LINE
  5
305
330
1F
100
AcDbEntity
  8
0
  6
Continuous
 62
     7
370
    25
100
AcDbLine
 10
-52.3741256618
 20
31.3631018535
 30
0.0
 11
-57.5044278117
 21
17.2677125417
 31
0.0
  0
LINE
  5
306
330
1F
100
AcDbEntity
  8
0
  6
Continuous
 62
     7
370
    25
100
AcDbLine
 10
-57.5044278117
 20
17.2677125417
 30
0.0
 11
-59.3838130532
 21
17.9517528283
 31
0.0
  0
LINE
  5
307
330
1F
100
AcDbEntity
  8
0
  6
Continuous
 62
     7
370
    25
100
AcDbLine
 10
-59.3838130532
 20
17.9517528283
 30
0.0
 11
-59.0452440034
 21
7.1867460472
 31
0.0
  0
LINE
  5
308
330
1F
100
AcDbEntity
  8
0
  6
Continuous
 62
     7
370
    25
100
AcDbLine
 10
-51.866272087
 20
15.2155916817
 30
0.0
 11
-59.0452440034
 21
7.1867460472
 31
0.0
  0
LINE
  5
309
330
1F
100
AcDbEntity
  8
0
  6
Continuous
 62
     7
370
    25
100
AcDbLine
 10
-53.7456573285
 20
15.8996319684
 30
0.0
 11
-51.866272087
 21
15.2155916817
 31
0.0
  0
LINE
  5
30A
330
1F
100
AcDbEntity
  8
0
  6
Continuous
 62
     7
370
    25
100
AcDbLine
 10
-50.1698474797
 20
92.6526658138
 30
0.0
 11
-52.7745701447
 21
77.8805495186
 31
0.0
  0
LINE
  5
30B
330
1F
100
AcDbEntity
  8
0
  6
Continuous
 62
     7
370
    25
100
AcDbLine
 10
-54.1090784918
 20
93.3472585245
 30
0.0
 11
-50.1698474797
 21
92.6526658138
 31
0.0
  0
LINE
  5
30C
330
1F
100
AcDbEntity
  8
0
  6
Continuous
 62
     7
370
    25
100
AcDbLine
 10
-54.1090784918
 20
93.3472585245
 30
0.0
 11
-56.7138011568
 21
78.5751422293
 31
0.0
  0
LINE
  5
30D
330
1F
100
AcDbEntity
  8
0
  6
Continuous
 62
     7
370
    25
100
AcDbLine
 10
-56.7138011568
 20
78.5751422293
 30
0.0
 11
-58.6834166628
 21
78.9224385846
 31
0.0
  0
LINE
  5
30E
330
1F
100
AcDbEntity
  8
0
  6
Continuous
 62
     7
370
    25
100
AcDbLine
 10
-58.6834166628
 20
78.9224385846
 30
0.0
 11
-56.4806674274
 21
68.3797683438
 31
0.0
  0
LINE
  5
30F
330
1F
100
AcDbEntity
  8
0
  6
Continuous
 62
     7
370
    25
100
AcDbLine
 10
-50.8049546387
 20
77.5332531633
 30
0.0
 11
-56.4806674274
 21
68.3797683438
 31
0.0
  0
LINE
  5
310
330
1F
100
AcDbEntity
  8
0
  6
Continuous
 62
     7
370
    25
100
AcDbLine
 10
-52.7745701447
 20
77.8805495186
 30
0.0
 11
-50.8049546387
 21
77.5332531633
 31
0.0
  0
LINE
  5
311
330
1F
100
AcDbEntity
  8
0
  6
Continuous
 62
     7
370
    25
100
AcDbLine
 10
-138.6682915373
 20
144.1262163478
 30
0.0
 11
-133.5379893874
 21
130.030827036
 31
0.0
  0
LINE
  5
312
330
1F
100
AcDbEntity
  8
0
  6
Continuous
 62
     7
370
    25
100
AcDbLine
 10
-142.4270620204
 20
142.7581357745
 30
0.0
 11
-138.6682915373
 21
144.1262163478
 31
0.0
  0
LINE
  5
313
330
1F
100
AcDbEntity
  8
0
  6
Continuous
 62
     7
370
    25
100
AcDbLine
 10
-142.4270620204
 20
142.7581357745
 30
0.0
 11
-137.2967598706
 21
128.6627464627
 31
0.0
  0
LINE
  5
314
330
1F
100
AcDbEntity
  8
0
  6
Continuous
 62
     7
370
    25
100
AcDbLine
 10
-137.2967598706
 20
128.6627464627
 30
0.0
 11
-139.1761451121
 21
127.978706176
 31
0.0
  0
LINE
  5
315
330
1F
100
AcDbEntity
  8
0
  6
Continuous
 62
     7
370
    25
100
AcDbLine
 10
-139.1761451121
 20
127.978706176
 30
0.0
 11
-131.9971731957
 21
119.9498605415
 31
0.0
  0
LINE
  5
316
330
1F
100
AcDbEntity
  8
0
  6
Continuous
 62
     7
370
    25
100
AcDbLine
 10
-131.6586041458
 20
130.7148673226
 30
0.0
 11
-131.9971731957
 21
119.9498605415
 31
0.0
  0
LINE
  5
317
330
1F
100
AcDbEntity
  8
0
  6
Continuous
 62
     7
370
    25
100
AcDbLine
 10
-133.5379893874
 20
130.030827036
 30
0.0
 11
-131.6586041458
 21
130.7148673226
 31
0.0
  0
LINE
  5
318
330
1F
100
AcDbEntity
  8
0
  6
Continuous
 62
     7
370
    25
100
AcDbLine
 10
-77.0
 20
245.0
 30
0.0
 11
-77.0
 21
230.0
 31
0.0
  0
LINE
  5
319
330
1F
100
AcDbEntity
  8
0
  6
Continuous
 62
     7
370
    25
100
AcDbLine
 10
-77.0
 20
230.0
 30
0.0
 11
-79.0
 21
230.0
 31
0.0
  0
LINE
  5
31A
330
1F
100
AcDbEntity
  8
0
  6
Continuous
 62
     7
370
    25
100
AcDbLine
 10
-79.0
 20
230.0
 30
0.0
 11
-75.0
 21
220.0
 31
0.0
  0
LINE
  5
31B
330
1F
100
AcDbEntity
  8
0
  6
Continuous
 62
     7
370
    25
100
AcDbLine
 10
-71.0
 20
230.0
 30
0.0
 11
-75.0
 21
220.0
 31
0.0
  0
LINE
  5
31C
330
1F
100
AcDbEntity
  8
0
  6
Continuous
 62
     7
370
    25
100
AcDbLine
 10
-73.0
 20
230.0
 30
0.0
 11
-71.0
 21
230.0
 31
0.0
  0
LINE
  5
31D
330
1F
100
AcDbEntity
  8
0
  6
Continuous
 62
     7
370
    25
100
AcDbLine
 10
-73.0
 20
245.0
 30
0.0
 11
-73.0
 21
230.0
 31
0.0
  0
LINE
  5
31E
330
1F
100
AcDbEntity
  8
0
  6
Continuous
 62
     7
370
    25
100
AcDbLine
 10
-77.0
 20
245.0
 30
0.0
 11
-73.0
 21
245.0
 31
0.0
  0
LINE
  5
31F
330
1F
100
AcDbEntity
  8
0
  6
Continuous
 62
     7
370
    25
100
AcDbLine
 10
-120.6679338403
 20
210.8295961753
 30
0.0
 11
-118.0632111753
 21
196.0574798801
 31
0.0
  0
LINE
  5
320
330
1F
100
AcDbEntity
  8
0
  6
Continuous
 62
     7
370
    25
100
AcDbLine
 10
-118.0632111753
 20
196.0574798801
 30
0.0
 11
-120.0328266813
 21
195.7101835248
 31
0.0
  0
LINE
  5
321
330
1F
100
AcDbEntity
  8
0
  6
Continuous
 62
     7
370
    25
100
AcDbLine
 10
-120.0328266813
 20
195.7101835248
 30
0.0
 11
-114.3571138926
 21
186.5566987053
 31
0.0
  0
LINE
  5
322
330
1F
100
AcDbEntity
  8
0
  6
Continuous
 62
     7
370
    25
100
AcDbLine
 10
-112.1543646572
 20
197.0993689461
 30
0.0
 11
-114.3571138926
 21
186.5566987053
 31
0.0
  0
LINE
  5
323
330
1F
100
AcDbEntity
  8
0
  6
Continuous
 62
     7
370
    25
100
AcDbLine
 10
-114.1239801633
 20
196.7520725908
 30
0.0
 11
-112.1543646572
 21
197.0993689461
 31
0.0
  0
LINE
  5
324
330
1F
100
AcDbEntity
  8
0
  6
Continuous
 62
     7
370
    25
100
AcDbLine
 10
-116.7287028283
 20
211.5241888859
 30
0.0
 11
-114.1239801633
 21
196.7520725908
 31
0.0
  0
LINE
  5
325
330
1F
100
AcDbEntity
  8
0
  6
Continuous
 62
     7
370
    25
100
AcDbLine
 10
-120.6679338403
 20
210.8295961753
 30
0.0
 11
-116.7287028283
 21
211.5241888859
 31
0.0
  0
LINE
  5
326
330
1F
100
AcDbEntity
  8
0
  6
Continuous
 62
     7
370
    25
100
AcDbLine
 10
-107.886478638
 20
59.553880477
 30
0.0
 11
-102.7561764881
 21
45.4584911653
 31
0.0
  0
LINE
  5
327
330
1F
100
AcDbEntity
  8
0
  6
Continuous
 62
     7
370
    25
100
AcDbLine
 10
-111.6452491211
 20
58.1857999037
 30
0.0
 11
-107.886478638
 21
59.553880477
 31
0.0
  0
LINE
  5
328
330
1F
100
AcDbEntity
  8
0
  6
Continuous
 62
     7
370
    25
100
AcDbLine
 10
-111.6452491211
 20
58.1857999037
 30
0.0
 11
-106.5149469712
 21
44.090410592
 31
0.0
  0
LINE
  5
329
330
1F
100
AcDbEntity
  8
0
  6
Continuous
 62
     7
370
    25
100
AcDbLine
 10
-106.5149469712
 20
44.090410592
 30
0.0
 11
-108.3943322128
 21
43.4063703053
 31
0.0
  0
LINE
  5
32A
330
1F
100
AcDbEntity
  8
0
  6
Continuous
 62
     7
370
    25
100
AcDbLine
 10
-108.3943322128
 20
43.4063703053
 30
0.0
 11
-101.2153602964
 21
35.3775246707
 31
0.0
  0
LINE
  5
32B
330
1F
100
AcDbEntity
  8
0
  6
Continuous
 62
     7
370
    25
100
AcDbLine
 10
-100.8767912465
 20
46.1425314519
 30
0.0
 11
-101.2153602964
 21
35.3775246707
 31
0.0
  0
LINE
  5
32C
330
1F
100
AcDbEntity
  8
0
  6
Continuous
 62
     7
370
    25
100
AcDbLine
 10
-102.7561764881
 20
45.4584911653
 30
0.0
 11
-100.8767912465
 21
46.1425314519
 31
0.0
  0
LINE
  5
32D
330
1F
100
AcDbEntity
  8
0
  6
Continuous
 62
     7
370
    25
100
AcDbLine
 10
-21.0844591876
 20
99.7879275525
 30
0.0
 11
-23.6934019466
 21
96.8701283292
 31
0.0
  0
LINE
  5
32E
330
1F
100
AcDbEntity
  8
0
  6
Continuous
 62
     7
370
    25
100
AcDbLine
 10
-22.9638444292
 20
100.4719678391
 30
0.0
 11
-21.0844591876
 21
99.7879275525
 31
0.0
  0
LINE
  5
32F
330
1F
100
AcDbEntity
  8
0
  6
Continuous
 62
     7
370
    25
100
AcDbLine
 10
-17.8335422793
 20
114.5673571509
 30
0.0
 11
-22.9638444292
 21
100.4719678391
 31
0.0
  0
LINE
  5
330
330
1F
100
AcDbEntity
  8
0
  6
Continuous
 62
     7
370
    25
100
AcDbLine
 10
-21.5923127625
 20
115.9354377242
 30
0.0
 11
-17.8335422793
 21
114.5673571509
 31
0.0
  0
LINE
  5
331
330
1F
100
AcDbEntity
  8
0
  6
Continuous
 62
     7
370
    25
100
AcDbLine
 10
-21.5923127625
 20
115.9354377242
 30
0.0
 11
-22.412441093
 21
113.6821536551
 31
0.0
  0
LINE
  5
332
330
1F
100
AcDbEntity
  8
0
  6
Continuous
 62
     7
370
    25
100
AcDbLine
 10
-29.9671733187
 20
195.7101835248
 30
0.0
 11
-35.4280189767
 21
186.9032248761
 31
0.0
  0
LINE
  5
333
330
1F
100
AcDbEntity
  8
0
  6
Continuous
 62
     7
370
    25
100
AcDbLine
 10
-31.9367888247
 20
196.0574798801
 30
0.0
 11
-29.9671733187
 21
195.7101835248
 31
0.0
  0
LINE
  5
334
330
1F
100
AcDbEntity
  8
0
  6
Continuous
 62
     7
370
    25
100
AcDbLine
 10
-29.3320661597
 20
210.8295961753
 30
0.0
 11
-31.9367888247
 21
196.0574798801
 31
0.0
  0
LINE
  5
335
330
1F
100
AcDbEntity
  8
0
  6
Continuous
 62
     7
370
    25
100
AcDbLine
 10
-33.2712971717
 20
211.5241888859
 30
0.0
 11
-29.3320661597
 21
210.8295961753
 31
0.0
  0
LINE
  5
336
330
1F
100
AcDbEntity
  8
0
  6
Continuous
 62
     7
370
    25
100
AcDbLine
 10
-33.2712971717
 20
211.5241888859
 30
0.0
 11
-35.8760198367
 21
196.7520725908
 31
0.0
  0
LINE
  5
337
330
1F
100
AcDbEntity
  8
0
  6
Continuous
 62
     7
370
    25
100
AcDbLine
 10
-35.8760198367
 20
196.7520725908
 30
0.0
 11
-37.8456353428
 21
197.0993689461
 31
0.0
  0
LINE
  5
338
330
1F
100
AcDbEntity
  8
0
  6
Continuous
 62
     7
370
    25
100
AcDbLine
 10
-37.8456353428
 20
197.0993689461
 30
0.0
 11
-35.7519749653
 21
187.0788134507
 31
0.0
  0
LINE
  5
339
330
1F
100
AcDbEntity
  8
0
  6
Continuous
 62
     7
370
    25
100
AcDbLine
 10
-73.0
 20
185.0
 30
0.0
 11
-73.0
 21
179.5758192574
 31
0.0
  0
LINE
  5
33A
330
1F
100
AcDbEntity
  8
0
  6
Continuous
 62
     7
370
    25
100
AcDbLine
 10
-77.0
 20
185.0
 30
0.0
 11
-73.0
 21
185.0
 31
0.0
  0
LINE
  5
33B
330
1F
100
AcDbEntity
  8
0
  6
Continuous
 62
     7
370
    25
100
AcDbLine
 10
-77.0
 20
185.0
 30
0.0
 11
-77.0
 21
171.0053128351
 31
0.0
  0
LINE
  5
33C
330
1F
100
AcDbEntity
  8
0
  6
Continuous
 62
     7
370
    25
100
AcDbLine
 10
-77.3580116482
 20
170.0
 30
0.0
 11
-79.0
 21
170.0
 31
0.0
  0
LINE
  5
33D
330
1F
100
AcDbEntity
  8
0
  6
Continuous
 62
     7
370
    25
100
AcDbLine
 10
-79.0
 20
170.0
 30
0.0
 11
-78.1396014035
 21
167.8490035088
 31
0.0
  0
LINE
  5
33E
330
1F
100
AcDbEntity
  8
0
  6
Continuous
 62
     7
370
    25
100
AcDbLine
 10
-111.5192574983
 20
181.9799562956
 30
0.0
 11
-110.5451599013
 21
176.4555743032
 31
0.0
  0
LINE
  5
33F
330
1F
100
AcDbEntity
  8
0
  6
Continuous
 62
     7
370
    25
100
AcDbLine
 10
-114.3734305507
 20
181.4766885788
 30
0.0
 11
-111.5192574983
 21
181.9799562956
 31
0.0
  0
LINE
  5
340
330
1F
100
AcDbEntity
  8
0
  6
Continuous
 62
     7
370
    25
100
AcDbLine
 10
-114.5708735427
 20
166.2104748739
 30
0.0
 11
-114.8233813513
 21
166.1659509344
 31
0.0
  0
LINE
  5
341
330
1F
100
AcDbEntity
  8
0
  6
Continuous
 62
     7
370
    25
100
AcDbLine
 10
-114.8233813513
 20
166.1659509344
 30
0.0
 11
-109.1476685626
 21
157.0124661149
 31
0.0
  0
LINE
  5
342
330
1F
100
AcDbEntity
  8
0
  6
Continuous
 62
     7
370
    25
100
AcDbLine
 10
-108.28986862
 20
161.1180182961
 30
0.0
 11
-109.1476685626
 21
157.0124661149
 31
0.0
  0
LINE
  5
343
330
1F
100
AcDbEntity
  8
0
  6
Continuous
 62
     7
370
    25
100
AcDbLine
 10
-77.0
 20
153.8388667539
 30
0.0
 11
-77.0
 21
140.0
 31
0.0
  0
LINE
  5
344
330
1F
100
AcDbEntity
  8
0
  6
Continuous
 62
     7
370
    25
100
AcDbLine
 10
-77.0
 20
140.0
 30
0.0
 11
-79.0
 21
140.0
 31
0.0
  0
LINE
  5
345
330
1F
100
AcDbEntity
  8
0
  6
Continuous
 62
     7
370
    25
100
AcDbLine
 10
-79.0
 20
140.0
 30
0.0
 11
-75.0
 21
130.0
 31
0.0
  0
LINE
  5
346
330
1F
100
AcDbEntity
  8
0
  6
Continuous
 62
     7
370
    25
100
AcDbLine
 10
-71.0
 20
140.0
 30
0.0
 11
-75.0
 21
130.0
 31
0.0
  0
LINE
  5
347
330
1F
100
AcDbEntity
  8
0
  6
Continuous
 62
     7
370
    25
100
AcDbLine
 10
-73.0
 20
140.0
 30
0.0
 11
-71.0
 21
140.0
 31
0.0
  0
LINE
  5
348
330
1F
100
AcDbEntity
  8
0
  6
Continuous
 62
     7
370
    25
100
AcDbLine
 10
-73.0
 20
155.0
 30
0.0
 11
-73.0
 21
140.0
 31
0.0
  0
LINE
  5
349
330
1F
100
AcDbEntity
  8
0
  6
Continuous
 62
     7
370
    25
100
AcDbLine
 10
-74.977141869
 20
155.0
 30
0.0
 11
-73.0
 21
155.0
 31
0.0
  0
LINE
  5
34A
330
1F
100
AcDbEntity
  8
0
  6
Continuous
 62
     7
370
    25
100
AcDbLine
 10
-39.2633331897
 20
177.5416639548
 30
0.0
 11
-41.0854651667
 21
167.2078400004
 31
0.0
  0
LINE
  5
34B
330
1F
100
AcDbEntity
  8
0
  6
Continuous
 62
     7
370
    25
100
AcDbLine
 10
-41.0854651667
 20
167.2078400004
 30
0.0
 11
-43.0550806728
 21
167.5551363557
 31
0.0
  0
LINE
  5
34C
330
1F
100
AcDbEntity
  8
0
  6
Continuous
 62
     7
370
    25
100
AcDbLine
 10
-43.0550806728
 20
167.5551363557
 30
0.0
 11
-40.8523314374
 21
157.0124661149
 31
0.0
  0
LINE
  5
34D
330
1F
100
AcDbEntity
  8
0
  6
Continuous
 62
     7
370
    25
100
AcDbLine
 10
-35.1766186487
 20
166.1659509344
 30
0.0
 11
-40.8523314374
 21
157.0124661149
 31
0.0
  0
LINE
  5
34E
330
1F
100
AcDbEntity
  8
0
  6
Continuous
 62
     7
370
    25
100
AcDbLine
 10
-37.1462341547
 20
166.5132472897
 30
0.0
 11
-35.1766186487
 21
166.1659509344
 31
0.0
  0
LINE
  5
34F
330
1F
100
AcDbEntity
  8
0
  6
Continuous
 62
     7
370
    25
100
AcDbLine
 10
-35.7818145628
 20
174.2512553153
 30
0.0
 11
-37.1462341547
 21
166.5132472897
 31
0.0
  0
LINE
  5
350
330
1F
100
AcDbEntity
  8
0
  6
Continuous
 62
     7
370
    25
100
AcDbLine
 10
-32.5773402735
 20
85.7543226571
 30
0.0
 11
-36.9832192121
 21
73.6492697888
 31
0.0
  0
LINE
  5
351
330
1F
100
AcDbEntity
  8
0
  6
Continuous
 62
     7
370
    25
100
AcDbLine
 10
-36.9832192121
 20
73.6492697888
 30
0.0
 11
-38.8626044537
 21
74.3333100755
 31
0.0
  0
LINE
  5
352
330
1F
100
AcDbEntity
  8
0
  6
Continuous
 62
     7
370
    25
100
AcDbLine
 10
-38.8626044537
 20
74.3333100755
 30
0.0
 11
-38.5240354038
 21
63.5683032943
 31
0.0
  0
LINE
  5
353
330
1F
100
AcDbEntity
  8
0
  6
Continuous
 62
     7
370
    25
100
AcDbLine
 10
-31.3450634874
 20
71.5971489289
 30
0.0
 11
-38.5240354038
 21
63.5683032943
 31
0.0
  0
LINE
  5
354
330
1F
100
AcDbEntity
  8
0
  6
Continuous
 62
     7
370
    25
100
AcDbLine
 10
-33.224448729
 20
72.2811892155
 30
0.0
 11
-31.3450634874
 21
71.5971489289
 31
0.0
  0
LINE
  5
355
330
1F
100
AcDbEntity
  8
0
  6
Continuous
 62
     7
370
    25
100
AcDbLine
 10
-30.087762534
 20
80.8991637082
 30
0.0
 11
-33.224448729
 21
72.2811892155
 31
0.0
  0
ARC
  5
356
330
1F
100
AcDbEntity
  8
0
  6
Continuous
 62
     7
370
    25
100
AcDbCircle
 10
-132.0920661811
 20
231.5189938471
 30
0.0
 40
5.000000000000025
100
AcDbArc
 50
358.8756979906
 51
178.8756979906
  0
ARC
  5
357
330
1F
100
AcDbEntity
  8
0
  6
Continuous
 62
     7
370
    25
100
AcDbCircle
 10
-22.6656060007
 20
82.4452654854
 30
0.0
 40
5.0
100
AcDbArc
 50
269.1414542453
 51
65.2873026918
  0
ARC
  5
358
330
1F
100
AcDbEntity
  8
0
  6
Continuous
 62
     7
370
    25
100
AcDbCircle
 10
-18.4849220218
 20
91.529421003
 30
0.0
 40
5.000000000000084
100
AcDbArc
 50
187.3120974723
 51
245.2873026918
  0
MTEXT
  5
35A
330
1F
100
AcDbEntity
  8
0
  6
Continuous
 62
     7
100
AcDbMText
 10
-150.0
 20
-1.0195663917
 30
0.0
 40
4.83362
 41
0.0
 71
     1
 72
     1
  1
SOLIDWORKS Educational Product.
  7
SLDTEXTSTYLE0
 73
     1
 44
1.0
  0
MTEXT
  5
35B
330
1F
100
AcDbEntity
  8
0
  6
Continuous
 62
     7
100
AcDbMText
 10
-150.0
 20
-8.2699963917
 30
0.0
 40
4.83362
 41
0.0
 71
     1
 72
     1
  1
For Instructional Use Only.
  7
SLDTEXTSTYLE0
 73
     1
 44
1.0
  0
ENDSEC
  0
SECTION
  2
OBJECTS
  0
DICTIONARY
  5
C
330
0
100
AcDbDictionary
281
     1
  3
ACAD_GROUP
350
D
  3
ACAD_LAYOUT
350
1A
  3
ACAD_MLINESTYLE
350
17
  3
ACAD_PLOTSETTINGS
350
19
  3
ACAD_PLOTSTYLENAME
350
E
  3
ACAD_SCALELIST
350
47
  0
DICTIONARY
  5
D
102
{ACAD_REACTORS
330
C
102
}
330
C
100
AcDbDictionary
281
     1
  0
DICTIONARY
  5
1A
102
{ACAD_REACTORS
330
C
102
}
330
C
100
AcDbDictionary
281
     1
  3
Layout1
350
1E
  3
Layout2
350
26
  3
Model
350
22
  0
DICTIONARY
  5
17
102
{ACAD_REACTORS
330
C
102
}
330
C
100
AcDbDictionary
281
     1
  3
Standard
350
18
  0
DICTIONARY
  5
19
102
{ACAD_REACTORS
330
C
102
}
330
C
100
AcDbDictionary
281
     1
  0
ACDBDICTIONARYWDFLT
  5
E
102
{ACAD_REACTORS
330
C
102
}
330
C
100
AcDbDictionary
281
     1
  3
Normal
350
F
100
AcDbDictionaryWithDefault
340
F
  0
DICTIONARY
  5
47
102
{ACAD_REACTORS
330
C
102
}
330
C
100
AcDbDictionary
281
     1
  3
A0
350
48
  3
A1
350
49
  3
A2
350
4A
  3
A3
350
4B
  3
A4
350
4C
  3
A5
350
4D
  3
A6
350
4E
  3
A7
350
4F
  3
A8
350
50
  3
A9
350
51
  3
B0
350
52
  3
B1
350
53
  3
B2
350
54
  3
B3
350
55
  3
B4
350
56
  3
B5
350
57
  3
B6
350
58
  3
B7
350
59
  3
B8
350
5A
  3
B9
350
5B
  3
C0
350
5C
  3
C1
350
5D
  3
C2
350
5E
  3
C3
350
5F
  3
C4
350
60
  3
C5
350
61
  3
C6
350
62
  3
C7
350
63
  3
C8
350
64
  3
C9
350
65
  3
D0
350
66
  3
D1
350
67
  3
D2
350
68
  0
LAYOUT
  5
1E
102
{ACAD_REACTORS
330
1A
102
}
330
1A
100
AcDbPlotSettings
  1

  2
none_device
  4

  6

 40
0.0
 41
0.0
 42
0.0
 43
0.0
 44
0.0
 45
0.0
 46
0.0
 47
0.0
 48
0.0
 49
0.0
140
0.0
141
0.0
142
1.0
143
1.0
 70
   688
 72
     1
 73
     0
 74
     5
  7

 75
    16
147
1.0
148
0.0
149
0.0
100
AcDbLayout
  1
Layout1
 70
     1
 71
     1
 10
0.0
 20
0.0
 11
420.0
 21
297.0
 12
0.0
 22
0.0
 32
0.0
 14
1.0000000000E+20
 24
1.0000000000E+20
 34
1.0000000000E+20
 15
-1.0000000000E+20
 25
-1.0000000000E+20
 35
-1.0000000000E+20
146
0.0
 13
0.0
 23
0.0
 33
0.0
 16
1.0
 26
0.0
 36
0.0
 17
0.0
 27
1.0
 37
0.0
 76
     0
330
1B
  0
LAYOUT
  5
26
102
{ACAD_REACTORS
330
1A
102
}
330
1A
100
AcDbPlotSettings
  1

  2
none_device
  4

  6

 40
0.0
 41
0.0
 42
0.0
 43
0.0
 44
0.0
 45
0.0
 46
0.0
 47
0.0
 48
0.0
 49
0.0
140
0.0
141
0.0
142
1.0
143
1.0
 70
   688
 72
     1
 73
     0
 74
     5
  7

 75
    16
147
1.0
148
0.0
149
0.0
100
AcDbLayout
  1
Layout2
 70
     1
 71
     2
 10
0.0
 20
0.0
 11
0.0
 21
0.0
 12
0.0
 22
0.0
 32
0.0
 14
0.0
 24
0.0
 34
0.0
 15
0.0
 25
0.0
 35
0.0
146
0.0
 13
0.0
 23
0.0
 33
0.0
 16
1.0
 26
0.0
 36
0.0
 17
0.0
 27
1.0
 37
0.0
 76
     0
330
23
  0
LAYOUT
  5
22
102
{ACAD_REACTORS
330
1A
102
}
330
1A
100
AcDbPlotSettings
  1

  2
none_device
  4
ANSI_A_(11.00_x_8.50_Inches)
  6

 40
6.35
 41
19.05
 42
6.35000508
 43
19.05000254
 44
279.4
 45
215.9
 46
197.47229746
 47
-17.97050127
 48
0.0
 49
0.0
140
0.0
141
0.0
142
0.03366
143
1.0
 70
  1696
 72
     0
 73
     0
 74
     0
  7

 75
     0
147
0.0179189148
148
-1300.4909072572
149
0.0
100
AcDbLayout
  1
Model
 70
     1
 71
     0
 10
0.0
 20
0.0
 11
420.0
 21
297.0
 12
0.0
 22
0.0
 32
0.0
 14
-150.0
 24
0.0
 34
0.0
 15
0.0
 25
250.0
 35
0.0
146
0.0
 13
0.0
 23
0.0
 33
0.0
 16
1.0
 26
0.0
 36
0.0
 17
0.0
 27
1.0
 37
0.0
 76
     0
330
1F
331
29
  0
MLINESTYLE
  5
18
102
{ACAD_REACTORS
330
17
102
}
330
17
100
AcDbMlineStyle
  2
Standard
 70
     0
  3

 62
   256
 51
90.0
 52
90.0
 71
     2
 49
0.5
 62
   256
  6
BYLAYER
 49
-0.5
 62
   256
  6
BYLAYER
  0
ACDBPLACEHOLDER
  5
F
102
{ACAD_REACTORS
330
E
102
}
330
E
  0
SCALE
  5
48
102
{ACAD_REACTORS
330
47
102
}
330
47
100
AcDbScale
 70
     0
300
1:1
140
1.0
141
1.0
290
     1
  0
SCALE
  5
49
102
{ACAD_REACTORS
330
47
102
}
330
47
100
AcDbScale
 70
     0
300
1:2
140
1.0
141
2.0
290
     0
  0
SCALE
  5
4A
102
{ACAD_REACTORS
330
47
102
}
330
47
100
AcDbScale
 70
     0
300
1:4
140
1.0
141
4.0
290
     0
  0
SCALE
  5
4B
102
{ACAD_REACTORS
330
47
102
}
330
47
100
AcDbScale
 70
     0
300
1:5
140
1.0
141
5.0
290
     0
  0
SCALE
  5
4C
102
{ACAD_REACTORS
330
47
102
}
330
47
100
AcDbScale
 70
     0
300
1:8
140
1.0
141
8.0
290
     0
  0
SCALE
  5
4D
102
{ACAD_REACTORS
330
47
102
}
330
47
100
AcDbScale
 70
     0
300
1:10
140
1.0
141
10.0
290
     0
  0
SCALE
  5
4E
102
{ACAD_REACTORS
330
47
102
}
330
47
100
AcDbScale
 70
     0
300
1:16
140
1.0
141
16.0
290
     0
  0
SCALE
  5
4F
102
{ACAD_REACTORS
330
47
102
}
330
47
100
AcDbScale
 70
     0
300
1:20
140
1.0
141
20.0
290
     0
  0
SCALE
  5
50
102
{ACAD_REACTORS
330
47
102
}
330
47
100
AcDbScale
 70
     0
300
1:30
140
1.0
141
30.0
290
     0
  0
SCALE
  5
51
102
{ACAD_REACTORS
330
47
102
}
330
47
100
AcDbScale
 70
     0
300
1:40
140
1.0
141
40.0
290
     0
  0
SCALE
  5
52
102
{ACAD_REACTORS
330
47
102
}
330
47
100
AcDbScale
 70
     0
300
1:50
140
1.0
141
50.0
290
     0
  0
SCALE
  5
53
102
{ACAD_REACTORS
330
47
102
}
330
47
100
AcDbScale
 70
     0
300
1:100
140
1.0
141
100.0
290
     0
  0
SCALE
  5
54
102
{ACAD_REACTORS
330
47
102
}
330
47
100
AcDbScale
 70
     0
300
2:1
140
2.0
141
1.0
290
     0
  0
SCALE
  5
55
102
{ACAD_REACTORS
330
47
102
}
330
47
100
AcDbScale
 70
     0
300
4:1
140
4.0
141
1.0
290
     0
  0
SCALE
  5
56
102
{ACAD_REACTORS
330
47
102
}
330
47
100
AcDbScale
 70
     0
300
8:1
140
8.0
141
1.0
290
     0
  0
SCALE
  5
57
102
{ACAD_REACTORS
330
47
102
}
330
47
100
AcDbScale
 70
     0
300
10:1
140
10.0
141
1.0
290
     0
  0
SCALE
  5
58
102
{ACAD_REACTORS
330
47
102
}
330
47
100
AcDbScale
 70
     0
300
100:1
140
100.0
141
1.0
290
     0
  0
SCALE
  5
59
102
{ACAD_REACTORS
330
47
102
}
330
47
100
AcDbScale
 70
     0
300
1/128" = 1'-0"
140
0.0078125
141
12.0
290
     0
  0
SCALE
  5
5A
102
{ACAD_REACTORS
330
47
102
}
330
47
100
AcDbScale
 70
     0
300
1/64" = 1'-0"
140
0.015625
141
12.0
290
     0
  0
SCALE
  5
5B
102
{ACAD_REACTORS
330
47
102
}
330
47
100
AcDbScale
 70
     0
300
1/32" = 1'-0"
140
0.03125
141
12.0
290
     0
  0
SCALE
  5
5C
102
{ACAD_REACTORS
330
47
102
}
330
47
100
AcDbScale
 70
     0
300
1/16" = 1'-0"
140
0.0625
141
12.0
290
     0
  0
SCALE
  5
5D
102
{ACAD_REACTORS
330
47
102
}
330
47
100
AcDbScale
 70
     0
300
3/32" = 1'-0"
140
0.09375
141
12.0
290
     0
  0
SCALE
  5
5E
102
{ACAD_REACTORS
330
47
102
}
330
47
100
AcDbScale
 70
     0
300
1/8" = 1'-0"
140
0.125
141
12.0
290
     0
  0
SCALE
  5
5F
102
{ACAD_REACTORS
330
47
102
}
330
47
100
AcDbScale
 70
     0
300
3/16" = 1'-0"
140
0.1875
141
12.0
290
     0
  0
SCALE
  5
60
102
{ACAD_REACTORS
330
47
102
}
330
47
100
AcDbScale
 70
     0
300
1/4" = 1'-0"
140
0.25
141
12.0
290
     0
  0
SCALE
  5
61
102
{ACAD_REACTORS
330
47
102
}
330
47
100
AcDbScale
 70
     0
300
3/8" = 1'-0"
140
0.375
141
12.0
290
     0
  0
SCALE
  5
62
102
{ACAD_REACTORS
330
47
102
}
330
47
100
AcDbScale
 70
     0
300
1/2" = 1'-0"
140
0.5
141
12.0
290
     0
  0
SCALE
  5
63
102
{ACAD_REACTORS
330
47
102
}
330
47
100
AcDbScale
 70
     0
300
3/4" = 1'-0"
140
0.75
141
12.0
290
     0
  0
SCALE
  5
64
102
{ACAD_REACTORS
330
47
102
}
330
47
100
AcDbScale
 70
     0
300
1" = 1'-0"
140
1.0
141
12.0
290
     0
  0
SCALE
  5
65
102
{ACAD_REACTORS
330
47
102
}
330
47
100
AcDbScale
 70
     0
300
1-1/2" = 1'-0"
140
1.5
141
12.0
290
     0
  0
SCALE
  5
66
102
{ACAD_REACTORS
330
47
102
}
330
47
100
AcDbScale
 70
     0
300
3" = 1'-0"
140
3.0
141
12.0
290
     0
  0
SCALE
  5
67
102
{ACAD_REACTORS
330
47
102
}
330
47
100
AcDbScale
 70
     0
300
6" = 1'-0"
140
6.0
141
12.0
290
     0
  0
SCALE
  5
68
102
{ACAD_REACTORS
330
47
102
}
330
47
100
AcDbScale
 70
     0
300
1'-0" = 1'-0"
140
12.0
141
12.0
290
     0
  0
ENDSEC
  0
EOF
